<?xml version="1.0" standalone="no"?>
<!DOCTYPE svg PUBLIC "-//W3C//DTD SVG 1.1//EN" "http://www.w3.org/Graphics/SVG/1.1/DTD/svg11.dtd" >
<svg xmlns="http://www.w3.org/2000/svg">
<metadata>
<json>
<![CDATA[
{
	"fontFamily": "muabannhanh_icon_version2",
	"majorVersion": 1,
	"minorVersion": 0,
	"version": "Version 1.0",
	"fontId": "muabannhanh_icon_version2",
	"psName": "muabannhanh_icon_version2",
	"subFamily": "Regular",
	"fullName": "muabannhanh_icon_version2",
	"description": "Font generated by IcoMoon."
}
]]>
</json>
</metadata>
<defs>
<font id="muabannhanh_icon_version2" horiz-adv-x="1024">
<font-face units-per-em="1024" ascent="960" descent="-64" />
<missing-glyph horiz-adv-x="1024" />
<glyph unicode="&#x20;" horiz-adv-x="512" d="" />
<glyph unicode="&#xe600;" glyph-name="category-icon-1-ky-thuat-so" data-tags="category-icon-1-ky-thuat-so" d="M299.5 182.5c-3.1 0-5.7-2.5-5.7-5.7v-24.4c0-3.1 2.6-5.7 5.7-5.7h295.3c3.1 0 5.7 2.6 5.7 5.7v24.4c0 3.1-2.6 5.7-5.7 5.7h-65c-3.1 0-5.7 2.6-5.7 5.7v21.1c0 3.1-2.6 5.7-5.7 5.7h-121c-3.1 0-5.7-2.6-5.7-5.7v-21.1c0-3.1-2.6-5.7-5.7-5.7h-86.5zM154.1 752c-21.5 0-39-17.5-39-39v-429c0-21.5 17.5-38.9 39-38.9h430.1c0 0 16 0 16 20v47.6c0 20.1-15.5 20-15.5 20h-440v380.4c0 5.1 4.3 9.5 9.5 9.5h617.3c5.1 0 9.5-4.3 9.5-9.5v-101.4c0-13.7-1.5-15.6 6-15.6h15.5c9 0 8 1.9 8 15.3v101.7c0 21.5-17.5 39-38.9 39l-617.5-0.1zM462.8 278.7c-9.7 0-17.6 7.9-17.6 17.6s7.9 17.5 17.6 17.5c9.7 0 17.6-7.9 17.6-17.5-0.1-9.7-7.9-17.6-17.6-17.6v0zM660.4 561.3c-13.9 0-25.1-11.3-25.1-25.1v-367c0-13.9 11.3-25.1 25.1-25.1h223.3c13.9 0 25.1 11.3 25.1 25.1v367c0 13.9-11.3 25.1-25.1 25.1h-223.3zM799.6 535.7c2.6 0 4.8-2.1 4.8-4.8s-2.1-4.8-4.8-4.8h-55.1c-2.6 0-4.8 2.1-4.8 4.8s2.1 4.8 4.8 4.8h55.1zM772.4 161.7c-7.2 0-13 5.8-13 13s5.8 13 13 13 13-5.8 13-13c0-7.2-5.9-13-13-13v0zM656.8 504.9c0 3.4 2.7 6.1 6 6.1h218.5c3.3 0 6-2.7 6-6.1v-305c0-3.4-2.7-6.1-6-6.1h-218.5c-3.3 0-6 2.7-6 6.1v305z" />
<glyph unicode="&#xe601;" glyph-name="category-icon-2-dien-may" data-tags="category-icon-2-dien-may" d="M269.1 718.9c0-10.4-8.5-18.8-18.8-18.8-10.4 0-18.8 8.5-18.8 18.8s8.5 18.8 18.8 18.8c10.4 0 18.8-8.4 18.8-18.8v0zM329.5 718.9c0-10.4-8.5-18.8-18.8-18.8-10.4 0-18.8 8.5-18.8 18.8s8.5 18.8 18.8 18.8c10.3 0 18.8-8.4 18.8-18.8v0zM671.9 718.9c0-10.4-8.5-18.8-18.8-18.8-10.4 0-18.8 8.5-18.8 18.8s8.5 18.8 18.8 18.8 18.8-8.4 18.8-18.8v0zM732.2 718.9c0-10.4-8.5-18.8-18.8-18.8-10.4 0-18.8 8.5-18.8 18.8s8.5 18.8 18.8 18.8c10.3 0 18.8-8.4 18.8-18.8v0zM792.5 718.9c0-10.4-8.5-18.8-18.8-18.8-10.4 0-18.8 8.5-18.8 18.8s8.5 18.8 18.8 18.8c10.4 0 18.8-8.4 18.8-18.8v0zM512 206.9c91.6 0 166.1 74.6 166.1 166.1s-74.5 166.2-166.1 166.2-166.1-74.6-166.1-166.1 74.5-166.2 166.1-166.2v0zM512 505.4c73 0 132.2-59.2 132.2-132.2 0-1 0-1.9-0.1-2.8-5.9-4.9-12.7-9.2-24.2-9.2-13.8 0-20.8 6.1-27.5 12s-13.1 11.5-26 11.5c-12.9 0-19.2-5.5-26-11.5-6.8-5.9-13.7-12-27.5-12s-20.8 6.1-27.5 12c-6.7 5.9-13.1 11.5-26 11.5s-19.3-5.5-26-11.5c-6.8-5.9-13.7-12-27.5-12-12.7 0-19.6 5.1-25.9 10.6 0 0.5 0 1 0 1.5-0.2 72.9 59 132.1 132 132.1v0zM189.2 65h645.6v616.4h-645.6v-616.4zM512 577.2c112.5 0 204.1-91.6 204.1-204.1s-91.6-204-204.1-204-204.1 91.6-204.1 204.1 91.5 204 204.1 204v0zM189.2 831h645.6v-66.4h-645.6v66.4z" />
<glyph unicode="&#xe602;" glyph-name="category-icon-3-xe-may-xe-dap" data-tags="category-icon-3-xe-may-xe-dap" d="M691.1 290.2c0.7 0 1.5 0.2 2.4 0.6 3.2 1.6 14.6 7 23.2 10.2-0.2-2.6-0.4-5.2-0.4-7.8 0-53.5 43.6-97 97.1-97 53.6 0 97.1 43.5 97.1 97 0 22.9-8 43.8-21.2 60.5 10 5.5 17.4 11.7 20.6 19 3 6.9 2.2 14.4-2.3 22-20.2 34.9-57.8 56.7-98.3 56.7-1.3 0-2.6-0.2-3.9-0.3 0.6 8.1 1 22.9-3.4 31.6-4.2 8.5-15.4 10.4-27.2 12.5-5.5 1-17 3-18.7 5.5-7.3 11.2-41.4 87-49.1 111.5l22.9 2.9c3.8 0.5 6.9 3.4 7.5 7.1 1.6 9 8.9 54.7-4.8 71-3.7 4.3-8.6 6.7-14.1 6.7-18.9-0.7-79.7-23-79.7-39.3 0-1.7 0.6-4.5 2.9-11.3-1.6 1.3-3.6 2.2-5.6 2.2l-2-0.3c-13.6-3.3-25.8-7.7-26.3-7.9-4.5-1.6-6.9-6.6-5.3-11.2 1.3-3.5 4.7-5.7 8.2-5.7 1 0 2 0.2 3 0.5 0.2 0 12 4.2 24.6 7.4 3 0.8 5.1 3 6.1 5.8l0.4 0.1c1.3-3.6 2.8-8 4.7-13.1-3.8-2.9-6.9-4.9-6.9-4.9-4.1-2.6-5.3-8-2.7-12 1.6-2.7 4.4-4.1 7.4-4.1 1.6 0 3.2 0.4 4.6 1.4 0.2 0 1.7 1 3.8 2.5 2.6-7.1 5.5-15.1 8.9-24.5 12.1-33.1 24.6-67.2 27.4-77.5 5.1-18.5-4-125.3-51.5-139-25.7-7.4-55.7-11.4-84.5-11.4-18.2 0-35 1.6-44.7 4.4-12.3 3.5-33.3 18.7-40.8 38.3-4.8 12.6-3.4 25 4.3 37.2 10.7 17.1 19.8 27.8 26.5 35.7 6.2 7.4 10.7 12.7 13 19 1 2.7 0.5 5.6-1.1 8s-4.2 3.6-7.1 3.6h-267c-2 0-4-0.7-5.5-2-9.3-7.8-30-25.5-36.9-31.4l-35.3-0.7c-2.1-0.1-4.1-0.9-5.6-2.2l-29.1-25.8c-2.3-2.1-3.4-5.3-2.7-8.3l5.5-26.6c0.6-3 2.8-5.5 5.6-6.5l5.3-1.8c-9.7-15.5-26.9-45.6-27.6-64.9-0.1-2.4 0.5-6.1 3.8-9.4 2.4-2.4 7.5-7.6 38.4-12-0.3-3-0.5-6.2-0.5-9.3 0-58.7 47.9-106.5 106.6-106.5 53 0 97 39 105.1 89.6h224.8c40.7 0 68.4 1.6 94.2 22.4 0.2-5 1.3-12 1.9-14.7 0.4-2 1.9-3.5 4-3.5zM323.6 302.7c0-34.7-28.2-62.8-62.9-62.8s-62.9 28.1-62.9 62.8c0 1.7 0.3 3.4 0.5 5.1 29.5-1.9 79.3-4.8 125.3-5.1zM760 293.3c0 8 1.9 15.4 5 22.3 9.2 2.4 18.6 4.8 27.9 7.1 18.1 4.5 35.7 8.9 51.8 13.7 13.4-9.7 22.2-25.4 22.2-43 0-29.4-24-53.4-53.5-53.4-29.5-0.1-53.4 23.9-53.4 53.3z" />
<glyph unicode="&#xe603;" glyph-name="category-icon-4-o-to-xe-tai" data-tags="category-icon-4-o-to-xe-tai" d="M461.2 452.6c17.7-8.9 56.1-42.8 73.1-58.2l117.5-30.1v259.2h-5.4v63.5h-511.5v-282.8l37.3 42.1c3.1 3.2 14.9 13.8 37.4 15.7h0.2c31.9 2.5 67.9 3.8 104.2 3.8 28.5-0.1 122.9-1.1 147.2-13.2v0zM706.4 376.3c-0.6-2.3-1-4.7-1.3-7.1h-46.1v-6.8l9.8-2.5 5.9-16.6h32.1c7.6-28.3 33.5-49.3 64.2-49.3s56.6 20.9 64.2 49.3h60.6l0.7 25.9h-59.6c-0.3 2.4-0.8 4.8-1.3 7.1h71.4v43.4l-13.6 14.2v73.3l-90.3 116.7h-144.6v-247.6h47.9zM771 328.7c-17.6 0-31.9 14.3-31.9 31.9s14.3 31.9 31.9 31.9c17.6 0 31.9-14.3 31.9-31.9s-14.3-31.9-31.9-31.9v0zM685.6 511.6v84.6h105.2l60.6-84.6h-165.8zM117.1 257.1c0-0.4 0-0.7 0-1.1h8.1v-13.6h27.6c7.3-19.5 26.1-33.4 48.2-33.4 26.9 0 49 20.6 51.3 47h262.2c2.3-26.3 24.4-47 51.3-47 22.1 0 40.9 13.9 48.2 33.4h45.7v13.6h9l7.6 40.4-11.2 9.8-11.9 33.3-127.7 32.7c0 0-54 49.5-72.1 58.6-18 9-138.1 14.5-238.3 6.8-15-1.3-21.8-8.3-21.8-8.3l-62.8-70.9-13.4-42.1v-59.2zM565.7 241.6c-10.5 0-19 8.5-19 19s8.5 19 19 19c10.5 0 19-8.5 19-19s-8.6-19-19-19v0zM344.2 419.5c32.3-0.5 90.6-5.4 90.6-5.4l35.9-44.9h-126.5v50.3zM185.2 369.3l37.9 46.5c0 0 37.7 4.9 88.6 3.8v-50.2h-126.5zM200.9 241.6c-10.5 0-19 8.5-19 19s8.5 19 19 19c10.5 0 19-8.5 19-19s-8.5-19-19-19v0z" />
<glyph unicode="&#xe604;" glyph-name="category-icon-5-bat-dong-san" data-tags="category-icon-5-bat-dong-san" d="M699 732.2v-0.7l-48.1-7.4v19.2l-275.1 61.7-261.3-58v-34.4l15.7 2.9v-594.5l244.5-29.6 43.7 5.9v130l68.3 4v-125.7l46.6 5.6v123l61.2 3.5v-119.4l126.1 14.7v112.5l50.3 2.9v-109.3l34.4 4.3v107.3l45.8 2.7v-104.6l43 5.2v497.6l15.4-2.8v39.1l-210.5 44.3zM316.8 594.4l42.1 4.8v-35.2l-42.1-4.3v34.7zM147.9 574.2l35.6 4.1v-32.3l-35.6-3.5v31.7zM183.4 270.3l-35.6 1.5v31.7l35.6-0.8v-32.4zM183.4 326.1l-35.6 0.5v31.7l35.6 0.1v-32.3zM183.8 380.8l-35.5-0.5v31.7l35.5 1.2v-32.4zM183.8 434.9l-35.5-1.6v31.7l35.5 2.2v-32.3zM183.8 491.7l-35.5-2.7v31.8l35.5 3.2v-32.3zM184 600l-35.5-4.5v31.7l35.5 5.1v-32.3zM184 652.3l-35.5-5.4v31.6l35.5 6.1v-32.3zM202.5 581.4l37.5 4.4v-33.2l-37.5-3.8v32.6zM240.1 268.8l-37.6 1.6v32.5l37.6-0.8v-33.3zM240.1 326.3l-37.6 0.5v32.6l37.6 0.1v-33.2zM240.3 382.6l-37.6-0.6v32.6l37.6 1.2v-33.2zM240.3 438.3l-37.6-1.7v32.6l37.6 2.3v-33.2zM240.3 496.7l-37.6-2.7v32.5l37.6 3.4v-33.2zM240.7 608.3l-37.6-4.8v32.5l37.6 5.5v-33.2zM240.7 662l-37.6-5.8v32.6l37.6 6.4v-33.2zM257.4 587.6l39.8 4.6v-34.2l-39.8-4v33.6zM297.2 266.1l-39.8 1.7v33.5l39.8-1v-34.2zM297.2 325.3l-39.8 0.5v33.5l39.8 0.1v-34.1zM297.6 383.2l-39.8-0.6v33.5l39.8 1.3v-34.2zM297.6 440.5l-39.8-1.8v33.6l39.8 2.4v-34.2zM297.6 500.5l-39.8-2.9v33.6l39.8 3.5v-34.2zM298 615.3l-39.8-5.1v33.5l39.8 5.7v-34.1zM298 670.6l-39.8-6.2v33.5l39.8 6.8v-34.1zM358.9 263.5l-42.1 1.8v34.4l42.1-1.1v-35.1zM358.9 324.4l-42.1 0.5v34.6l42.1 0.1v-35.2zM359.2 384.1l-42.1-0.7v34.6l42.1 1.3v-35.2zM359.2 442.9l-42.1-1.8v34.6l42.1 2.5v-35.3zM359.2 504.9l-42.1-3v34.4l42.1 3.8v-35.2zM359.7 623.1l-42.2-5.5v34.6l42.2 6.1v-35.2zM359.7 680.1l-42.2-6.6v34.5l42.2 7.3v-35.2zM570.4 634.3l35.2-5.1v-33.2l-35.2 4.6v33.7zM570.4 524.1l35.2-3v-33.2l-35.2 2.5v33.7zM605.9 466.7v-33.2l-35.2 1.6v33.9l35.2-2.3zM570.1 414.4l35.2-1.2v-33.1l-35.2 0.5v33.8zM516.5 643.1l37.3-5.5v-34.1l-37.3 4.7v34.9zM516.5 529.8l37.3-3.4v-34.1l-37.3 2.7v34.8zM554 470.6v-34.1l-37.1 1.7v34.7l37.1-2.3zM516.1 416.9l37.2-1.2v-34.2l-37.2 0.6v34.8zM461.4 708.7l39.2-6.8v-35.1l-39.2 6.2v35.7zM460.7 651.3l39.2-5.8v-35.1l-39.2 5.1v35.8zM500.6 587.6v-35l-39.2 4v35.7l39.2-4.7zM460.7 534.9l39.2-3.6v-34.9l-39.2 2.8v35.7zM500.2 474v-35l-39.3 1.7v35.7l39.3-2.4zM460.3 418.9l39.2-1.3v-35.1l-39.2 0.6v35.8zM398.8 719.4l41.6-7.3v-36l-41.6 6.4v36.9zM398.4 443.1v36.8l41.6-2.5v-36.1l-41.6 1.8zM439.3 420v-36l-41.6 0.6v36.9l41.6-1.5zM439.7 559.1l-41.6 4.3v36.8l41.6-4.8v-36.3zM397.3 661.1l41.6-6.1v-36.2l-41.6 5.5v36.8zM397.3 540.9l41.6-3.8v-36l-41.6 3v36.8zM397.6 359.8l41.7-0.2v-36l-41.7-0.6v36.8zM441.2 264.4l-41.6-1.8v36.9l41.6 1v-36.1zM460.3 359.1l39.2-0.2v-35.1l-39.2-0.5v35.8zM500.9 267l-39.2-1.6v35.7l39.2 1v-35.1zM516.1 358.7l37.2-0.1v-34.1l-37.2-0.6v34.8zM554.2 268.8l-37.1-1.6v34.7l37.1 1v-34.1zM554.3 547.1l-37.1 3.8v34.7l37.1-4.4v-34.1zM554.3 658.4l-37.1 5.8v34.7l37.1-6.4v-34.1zM570 357.7l35.3-0.1v-33.2l-35.3-0.5v33.8zM606 270.1l-35.3-1.5v33.9l35.3 0.8v-33.2zM606.3 541.2l-35.2 3.5v33.8l35.2-4.1v-33.2zM606.3 649.4l-35.2 5.6v33.9l35.2-6.2v-33.3zM651.5 625.2l33.2-4.8v-88l-33.2 3.3v89.5zM651.9 518.4l33.1-3v-87.8l-33.1 1.3v89.5zM652.1 412.7l33.3-1.1v-88l-33.3-0.5v89.6zM685.4 272.2l-33.1-1.5v33.1l33.1 0.8v-32.4zM843.6 591.2l26.1-3.8v-28.6l-26.1 3.4v29zM843.6 496.4l26.1-2.3v-28.6l-26.1 1.8v29.1zM869.9 447.4v-28.6l-26.1 1.1v29l26.1-1.5zM843.3 402l26.1-0.7v-28.6l-26.1 0.3v29zM803.9 597.6l27.3-4v-29.3l-27.3 3.5v29.8zM803.9 500.5l27.3-2.4v-29.3l-27.3 2v29.7zM831.5 450.3v-29.4l-27.3 1.2v29.7l27.3-1.5zM803.7 403.9l27.3-0.8v-29.4l-27.3 0.5v29.7zM763.6 652.5l28.6-5v-30l-28.6 4.5v30.5zM763.2 603.5l28.6-4.1v-30l-28.6 3.7v30.4zM792.3 549.9v-30l-28.6 2.8v30.4l28.6-3.2zM763.2 504.2l28.6-2.5v-30l-28.6 2.1v30.4zM792 452.6v-30l-28.6 1.2v30.6l28.6-1.8zM762.8 405.3l28.8-0.8v-30l-28.8 0.4v30.4zM718.4 660.1l30.1-5.2v-30.7l-30.1 4.8v31.1zM718 425.6v31.3l30.2-1.8v-30.7l-30.2 1.2zM747.6 406.1v-30.7l-30.1 0.5v31.2l30.1-1zM747.9 524.7l-30.1 3v31.2l30.1-3.5v-30.7zM717.3 610.6l30.1-4.4v-30.7l-30.1 3.8v31.3zM717.3 508.6l30.1-2.6v-30.8l-30.1 2.2v31.2zM717.5 354.7h30.1v-30.7l-30.1-0.5v31.2zM749.1 273.6l-30.1-1.3v31.3l30.1 0.7v-30.7zM762.8 354.2h28.8v-30l-28.8-0.5v30.5zM792.5 275.6l-28.5-1.2v30.5l28.5 0.7v-30zM803.7 354.1h27.3v-29.4l-27.3-0.5v29.9zM831.7 276.9l-27.4-1.2v29.8l27.4 0.6v-29.2zM831.7 515.9l-27.3 2.8v29.7l27.3-3.3v-29.2zM831.7 611.4l-27.3 4.3v29.7l27.3-4.6v-29.4zM843.3 353.3h26.1v-28.6l-26.1-0.5v29.1zM869.9 278l-26.1-1.2v29.1l26.1 0.6v-28.5zM870.2 511.6l-26.1 2.5v29.1l26.1-3v-28.6zM870.2 604.9l-26.1 4v29.1l26.1-4.5v-28.6z" />
<glyph unicode="&#xe605;" glyph-name="category-icon-6-do-dung-trang-tri" data-tags="category-icon-6-do-dung-trang-tri" d="M738.4 212.8h-80.7c-11.1 0-20.2 11.9-20.2 24.2 0 2.8 0.6 5.4 1.4 8h-65.9v-96.9h242.2v96.9h-57.9c0.9-2.6 1.3-5.3 1.3-8 0-12.3-9-24.2-20.2-24.2v0zM738.4 390.3h-80.7c-11.1 0-20.2 12-20.2 24.3 0 2.7 0.6 5.4 1.4 8h-65.9v-96.9h242.2v96.9h-57.9c0.9-2.6 1.3-5.3 1.3-8 0-12.3-9-24.3-20.2-24.3v0zM289.5 305.6h121.1c10.6 0 19.4 6.8 22.8 16.2h-6.6c-22.2 0-40.4 18.1-40.4 40.4v40.4h-129.1v-40.4c0-22.2-18.1-40.4-40.4-40.4h-6.6c3.4-9.4 12.2-16.2 22.8-16.2h56.4zM386.4 418.7v24.2c0 22.2 18.1 40.4 40.4 40.4h8.1v282.5c0 13.4-11.9 24.2-26.6 24.2h-173c-14.7 0-26.6-10.8-26.6-24.2v-282.6h8.1c22.2 0 40.4-18.1 40.4-40.4v-24.2h129.2zM208.8 337.9h8.1c13.3 0 24.2 10.9 24.2 24.2v80.7c0 13.4-10.9 24.2-24.2 24.2h-32.3c-13.3 0-24.2-10.8-24.2-24.2v-80.7c0-13.3 10.9-24.2 24.2-24.2h24.2zM451 337.9h8.1c13.3 0 24.2 10.9 24.2 24.2v72.7c0 17.8-14.4 32.2-32.3 32.2h-24.2c-13.3 0-24.2-10.8-24.2-24.2v-80.7c0-13.3 10.9-24.2 24.2-24.2h24.2zM439 119.9c14.5 0 26.3 11.7 26.3 26.3 0 14.5-11.7 26.3-26.3 26.3-8.2 0-15.5-3.9-20.3-9.8l-80.7 16.9v110h-32.3v-108.1l-16.2-4.4-76.2-20.8c-0.2 0-0.3 0.1-0.4 0.1-5 0-9.5-1.4-13.5-3.9l-2.9-0.8 0.3-1c-6.2-4.8-10.2-12.2-10.2-20.6 0-14.5 11.7-26.3 26.3-26.3 14.4 0 26.1 11.6 26.2 26l59 16.1-8.5-8-32.2-30.5c-12.5-1.9-22.2-12.7-22.2-25.8 0-14.5 11.7-26.3 26.3-26.3s26.3 11.7 26.3 26.3c0 3-0.6 5.8-1.6 8.5l40 37.8 38.6-41.9c-0.2-1.5-0.4-3-0.4-4.5 0-14.5 11.7-26.3 26.2-26.3s26.3 11.7 26.3 26.3c0 14.5-11.7 26.3-26.3 26.3-0.5 0-1.2-0.2-1.7-0.2l-32.3 35.1 62.3-13c4.6-5.9 11.9-9.8 20.1-9.8v0zM760.1 581.6h-132.1l8.5-42.6h115.1l8.5 42.6zM768.7 624.2h-149.3l7.1-35.5h135l7.2 35.5zM740.2 482.1l10 49.7h-112.3l10-49.7h92.3zM591 674l14.2-42.6h177.7l14.2 42.6h-47.3c2.9 20.2 8.4 41.3 18.5 59.3 0 0-5.1-5.1-11.3-17 2.6 21.5 0.7 34.8-0.3 39.5 6.3 17.8 14.7 35 25.7 50.2 0 0-39.9-30.9-57.2-132h-2.4c0.4 8.6 1.1 17.8 2.2 27.1 3.2 13.7 8 27.2 14.8 39.4 0 0-5.2-5.2-11.4-17.3 4.2 22.3 11.2 44.8 22.4 64.6 0 0-30.5-29.7-40-113.7h-9.2c-0.1 1.5-0.2 3.1-0.2 4.7 1.5 36.3 8 80.6 28.1 116.1 0 0-13.4-13.1-25.2-46.4 3.7 27.8 11.1 57 25.2 81.9 0 0-40.5-39.5-42.7-156.3h-5.2c-0.6 2.6-1.1 5.2-1.6 8 1.1 37 7.5 83.2 28.2 120 0 0-21.7-21.2-34.2-78.3-2.4 28.6-1.5 59.7 7.3 87.8 0 0-25.8-38.8-14-131.7-0.2-1.9-0.3-3.9-0.5-5.8h-4.8c-2.2 8.3-4.6 16-7 23.2 10.3 68 0 95.9 0 95.9 2.6-23.1 0.8-48.8-2.9-73 3.3 85.3-22.6 119.4-22.6 119.4 13-34.1 14.3-73.7 11.6-107.5-20.5 43.4-41.4 57.6-41.4 57.6 18.4-22.3 30.8-50.1 39.3-77-1.9-15.2-4.5-28.5-6.7-38.6h-41.3zM756.2 754.2c-0.6-26.1-7.6-52.6-16.9-76.5 2.6 22.7 7.6 50 16.9 76.5v0zM863.5 422.7h0.1v-48.4h-0.1v48.4zM556.8 261.2h274.5v-129.1h-274.5v129.1zM863.6 422.7v48.4h-339.1v-419.7h32.2v48.4h274.5v-48.4h32.2v290.5h0.1v32.3h-0.1l0.2 48.5zM831.3 132.1h-274.5v129.1h274.5v-129.1zM831.3 422.7v-113.1h-274.5v129.2h274.5v-16.1z" />
<glyph unicode="&#xe606;" glyph-name="category-icon-7-thoi-trang-lam-dep" data-tags="category-icon-7-thoi-trang-lam-dep" d="M511.3 343.4c2.1 2 6.3 7.3 12 20.4 4.1 9.5 7.2 19.1 8.8 24.3-1.6 5.2-4.7 14.8-8.8 24.3-2.4 5.6-4.6 9.9-6.7 13.4l-5.2 8.6-5.2-8.6c-2.2-3.6-4.3-7.8-6.7-13.4-4.1-9.5-7.2-19.1-8.8-24.3 1.6-5.2 4.7-14.8 8.8-24.3 5.5-13.1 9.7-18.3 11.8-20.4zM601.6 668.7l-18.7 59.9h-144.1l-18.7-59.9c-1.7-5.6-6.6-9.5-12.4-10.2l-36.7-3.9 0.1-0.8c6.6-79.9 53.5-146 114.1-160.8l22.8-5.6c0.9 0 1.9-0.1 2.8-0.1s1.9 0.1 2.8 0.1l22.8 5.6c60.7 14.8 107.6 81 114.2 160.8l0.1 0.8-36.7 3.9c-5.8 0.7-10.7 4.7-12.4 10.2zM315.3 362.6c26.3-88.1 57.4-168.8 67.9-195.2h255.5c45.4 108 142.4 376.8 101.8 459.6-5.4 11-12.7 17.5-22.8 20.4l-35.5 3.8c-7.8-94.5-64.7-171.1-138.2-189.1 3.9-6.4 7.1-13.1 9.7-19.3 7.9-18.2 12.7-36 12.9-36.8 0.7-2.5 0.7-5.1 0-7.6-0.2-0.8-5-18.6-12.9-36.8-8.1-18.7-21.4-43.5-42.8-43.5-21.5 0-34.7 24.8-42.8 43.5-7.9 18.2-12.7 36-12.9 36.8-0.7 2.5-0.7 5.1 0 7.6 0.2 0.8 5 18.6 12.9 36.8 2.7 6.1 5.9 12.9 9.7 19.3-73.5 18-130.5 94.5-138.2 189.1l-36.1-3.9c-8.7-1.7-15-6.6-19.8-15.4-11.9-21.4-23.4-84.8 31.6-269.3z" />
<glyph unicode="&#xe607;" glyph-name="category-icon-8-qua-tang-do-choi" data-tags="category-icon-8-qua-tang-do-choi" d="M475.8 412.2h-210.4c-16.7 0-30.3-13.6-30.3-30.3v-227.4c0-16.7 13.6-30.3 30.3-30.3h213.9c7.1 0 7.1 7.7 7.1 7.7v270c0 0 0 10.3-10.6 10.3v0zM758.6 412.2h-210.1c-12.8 0-10.9-13.3-10.9-13.3v-267.3c0 0-0.1-7.4 7.6-7.4h213.4c16.7 0 30.3 13.6 30.3 30.3v227.4c0 16.7-13.6 30.3-30.3 30.3v0zM486.4 591.1c0 0 0 10.3-10.1 10.3h-245.1c-16.7 0-30.3-13.6-30.3-30.3v-94.6c0-16.7 13.6-30.3 30.3-30.3h245.9c9.3 0 9.3 8.1 9.3 8.1v136.8zM792.8 601.4h-245.8c-9.4 0-9.4-8.9-9.4-8.9v-138.4c0 0 0-7.9 11.4-7.9h243.8c16.7 0 30.3 13.6 30.3 30.3v94.6c0 16.7-13.6 30.3-30.3 30.3v0zM383.4 623.8c-13.9 0-26.5 1.1-37.6 3.3-28.2 5.5-47.6 16.2-59.3 32.8-10.5 14.8-13.7 33.1-9.5 54.3 7.3 37.1 32.2 57.6 70.2 57.6 8.1 0 16.9-0.9 26.3-2.8 23.9-4.7 54.4-18.4 81.7-36.6 46.3-31 48.6-50.3 46.3-62.1-3.4-17.3-19.6-29.7-49.6-37.9-20.3-5.4-45.2-8.6-68.5-8.6v0zM347.2 723.3c-14.7 0-19.8-4.1-22.6-18.3-2.3-11.6 0.6-15.7 1.5-17 3.9-5.6 14.2-10.2 28.9-13.1 7.9-1.6 17.7-2.4 28.3-2.4 23.3 0 43.8 3.5 57.4 7.4 1 0.3 2.5 1.4 0.9 2.4-17.8 14.5-50.4 33.9-77.5 39.2-6.3 1.1-12 1.8-16.9 1.8v0zM641.4 623.8v0c-23.3 0-48.3 3.2-68.5 8.7-30 8.1-46.2 20.5-49.5 37.9-2.3 11.8 0 31.1 46.3 62.1 27.3 18.3 57.8 32 81.7 36.6 9.4 1.8 18.2 2.8 26.3 2.8 38 0 63-20.5 70.2-57.6 4.2-21.2 0.9-39.5-9.5-54.3-11.7-16.6-31.1-27.3-59.3-32.8-11.2-2.3-23.9-3.4-37.7-3.4v0zM583.4 682.5c-1.6-0.9-0.8-2.4 0-2.6 13.6-3.9 34.4-7.5 57.9-7.5 10.6 0 20.4 0.8 28.3 2.4 14.7 2.9 24.9 7.5 28.9 13.1 0.9 1.3 3.8 5.4 1.5 17-2.8 14.2-7.8 18.3-22.6 18.3-4.9 0-10.6-0.6-17-1.9-27-5.2-59.2-24.3-77-38.8v0z" />
<glyph unicode="&#xe608;" glyph-name="category-icon-9-dich-vu" data-tags="category-icon-9-dich-vu" d="M801.6 273.2l-163.6 65.2-38.3 32.3c-10.1 8.6-25.1 7.9-34.4-1.4l-53.3-53-53.4 53c-9.4 9.3-24.3 9.9-34.4 1.4l-38.3-32.3-163.6-65.2c-52.7-21-52.6-207.5-57.2-224.7h693.8c-4.5 17.1-4.6 203.7-57.3 224.7v0zM717.6 678.5c-11.4 94.9-99.2 168.9-205.6 168.9s-194.3-74.1-205.6-168.9c-9.4-6-15.7-16.6-15.7-28.6v-77.1c0-18.8 15.2-34 34-34l30.7 0.1c19-99.2 86.3-155.6 156.6-155.6s111.1 33.4 138.2 95c-20.7-16.2-50.7-31.1-92.8-34.1-3.9-5.8-10.4-9.5-17.9-9.5h-19.6c-11.9 0-21.5 9.6-21.5 21.5s9.6 21.5 21.5 21.5h19.6c7 0 13.1-3.3 17.1-8.4 67.6 5.4 99.4 46.4 112 69.5h30.7c18.8 0 34 15.2 34 34v77.1c0 12-6.2 22.6-15.7 28.6v0zM667.4 675.1c-20 63.3-77.9 100.9-155.4 100.9s-135.4-37.6-155.5-100.9c-3.1 2.8-6.7 5-10.7 6.6 12.8 72 82.5 127.3 166.2 127.3s153.4-55.2 166.2-127.3c-4-1.5-7.6-3.8-10.8-6.6v0z" />
<glyph unicode="&#xe609;" glyph-name="category-icon-10-tim-viec-lam" data-tags="category-icon-10-tim-viec-lam" d="M888.6 176.7l-114.1 87.5c-15-24.3-32.8-46.8-53.2-67.2-1.7-1.7-3.4-3.3-5.2-5l116-88.9c8.5-6.5 18.4-9.6 28.2-9.6 13.9 0 27.8 6.2 36.9 18.2 15.5 20.2 11.7 49.4-8.6 65v0zM587.6 459.1c0 14.3-11.6 25.8-25.8 25.8h-28.7c-5.1 0-9.8-2.4-12.7-6.6l-42.4-59.9-10.3 21.7 16.4 34.5c2.2 4.7-1.2 10.2-6.4 10.2h-32.9c-5.2 0-8.7-5.5-6.4-10.2l16.4-34.5-10.1-21.4-41.1 59.3c-2.9 4.2-7.7 6.8-12.8 6.8h-30.2c-14.3 0-25.8-11.6-25.8-25.8v-171.7h252.8v171.8zM461.2 501.3c45.9 0 83.2 37.3 83.2 83.2s-37.3 83.2-83.2 83.2-83.2-37.3-83.2-83.2c0-45.8 37.4-83.2 83.2-83.2v0zM326.4 139.3c42.6-18 87.8-27.1 134.4-27.1s91.8 9.1 134.3 27.1c38 16.1 72.3 38.5 102.3 66.8 2.5 2.3 5 4.7 7.4 7.1 19.7 19.7 36.8 41.5 51.1 65 8.6 14.4 16.3 29.2 22.8 44.8 18 42.6 27.1 87.8 27.1 134.3s-9.1 91.8-27.1 134.3c-2.4 5.8-5 11.5-7.8 17.1-16.7 34.3-38.9 65.4-66.2 92.7-17 17-35.6 32-55.4 45-17.2 11.2-35.3 20.9-54.3 29-42.6 18-87.8 27.1-134.3 27.1-46.6 0-91.8-9.1-134.3-27.1-18.7-7.9-36.5-17.4-53.4-28.3-20.2-13.1-39.1-28.3-56.4-45.6-27.2-27.2-49.4-58.3-66.2-92.7-2.7-5.6-5.4-11.3-7.8-17.1-18-42.6-27.1-87.8-27.1-134.3s9.1-91.8 27.1-134.4c17.4-41.1 42.2-78 74-109.7 31.7-31.6 68.7-56.5 109.8-74v0zM267.4 608.9c1.9 2.3 3.7 4.6 5.7 6.9 4.5 5.3 9.1 10.4 14.1 15.3 46.4 46.4 108.1 72 173.7 72s127.3-25.5 173.6-72c5.3-5.3 10.3-10.8 15-16.4 1.6-1.9 3.2-3.8 4.7-5.8 33.9-43.1 52.2-95.8 52.2-151.4 0-65.6-25.5-127.3-72-173.7-46.4-46.4-108.1-72-173.6-72-65.6 0-127.3 25.5-173.6 72-46.4 46.4-72 108.1-72 173.7 0 55.5 18.4 108.3 52.2 151.4v0z" />
<glyph unicode="&#xe60a;" glyph-name="category-icon-11-am-thuc-thuc-pham" data-tags="category-icon-11-am-thuc-thuc-pham" d="M594.1 583.9c-18.3 0-33.1-5.7-33.1-30h66.3c-0.1 24.3-14.9 30-33.2 30zM815.9 323.2c0.2 2.8 0.3 5.8 0.3 8.8v0.6c0 26.9-8.1 53.5-22.8 78.3-0.9 1.6-2.1 3.2-3.1 4.8-1.1 1.7-2.1 3.4-3.3 5.1-7.4 11-16.1 21.5-26.1 31.5-7.2 7.2-15 13.8-23.2 19.9-2.2 1.8-4.6 3.5-7 5.2-2.5 1.7-4.9 3.6-7.5 5.2-8.5 5.6-17.4 10.4-26.6 14.9 0.7 1.7 1.9 3.4 3.4 5.1 1.2 1.4 2.7 2.8 4.5 4.2 1.6 1.2 3.4 2.5 5.6 3.7 17.2 9.9-25.8 31.1-57.6 31.1h-115.3c-31.8 0-64.8-14.5-64.8-34.4 0 0 4.4-1.6 8.6-5 1.5-1.2 3-2.7 4.3-4.3 1.1-1.5 2.1-3.2 2.8-5-14-7.7-27.5-16.6-39.9-27-3.8-3.1-7.1-6.4-10.6-9.7-2.8 0-5.4 0-7.5-0.2l-1.4-0.1c-2.7-0.2-5.4-0.3-8.1-0.1-7.8 0.5-15.1 2.8-19.8 8.6-10.9 13.5-19.3 29.3-38.7 37-14.2 5.6-37.8 3.1-50.8 1.2-13.1-1.9-11.8-3.2 1-9.1 6.7-3.1 13.9-7.8 20.4-15.1 19.6-21.9 38.5-89.9 42.3-97.5l0.1-0.2c1.1-2.1 2.5-4.3 4.1-6.6 1.6-2.2 3.4-4.4 5.3-6.6-2.5-11.1-3.8-22.4-3.8-33.9 0-34.5 14-62.4 38.1-86.5v0c12.2-12.2 27.4-22.9 44.8-32 1.8-1 3.8-1.9 5.7-2.8 2-1 4-1.9 6.1-2.9 34.8-15.6 77.3-24.7 123.5-24.7 43.6 0 87.3 7.3 123.9 22.7 2.1 0.8 4.2 1.8 6.2 2.7 1.9 0.9 3.9 1.8 5.7 2.7 17.2 8.5 32.5 18.9 45 31.5 2.2 2.2 4.4 4.5 6.5 6.9 2 2.4 4 4.7 5.9 7.2 11.9 15.8 19.9 34.4 22.9 55.7 0.5 3 0.8 6 0.9 9.1zM907.4 465.1c-3.4 11.1-8.7 20.3-15.7 27.4-26.6 26.6-74.7 18.9-106.5-1.9-11.6-7.6-22.2-12.2-32.4-15.1 5.7-4.7 11.2-9.7 16.5-15 9.8-9.8 18.4-20.3 25.8-31.1 1.8 2.4 3.7 5.3 5.7 8.4 4.8 7.4 9.6 15.1 16.2 20.3 13.1 10.5 29.3 10.1 40.4-1 4-4 7-9 9-15 9.4-28.4-8-70-25.6-96.9-4.5-6.9-9.2-13.3-14-18.9-0.9-23.5-6.9-44.2-17.1-62.1 26.6 11.4 46 31.3 59 48.9 37.3 50.5 49.2 118.2 38.7 152zM318.5 573.2c0 43.1 8.8 78 8.8 78s8.6-34.9 8.6-78c0-9-0.4-17.7-1.2-25.9 11.9 13.7 33.6 43.3 33.6 77.7 0 47.6-41.1 86.2-41.1 86.2s-41.1-38.6-41.1-86.2c0-34.5 21.6-64.2 33.3-77.7-0.4 8.3-0.9 16.9-0.9 25.9zM335.9 394.7c0-43.1-8.6-78-8.6-78s-8.8 34.9-8.8 78c0 9 0.4 17.7 1 25.9-11.8-13.6-33.3-43.3-33.3-77.9 0-47.5 41.1-86 41.1-86s41.1 38.6 41.1 86c0 34.6-21.7 64.3-33.6 77.9 0.7-8.3 1.1-16.8 1.1-25.9zM214.7 479.1c-5.2-0.4-10.6-0.7-16.4-0.7-27.3 0-49.3 5.5-49.3 5.5s22 5.5 49.3 5.5c5.8 0 11.2-0.3 16.4-0.7-8.8 7.5-27.4 21.2-49.3 21.2-30.2 0-54.5-26-54.5-26s24.3-26 54.5-26c21.9 0 40.5 13.8 49.3 21.2zM194.8 524.6c29.9-17.2 66.4-13.3 84.2-9.9-7.3 3.5-15.1 7.5-23 12-37.3 21.5-63.2 46.3-63.2 46.3s34.5-9.9 71.8-31.4c7.9-4.5 15.1-9.3 21.9-13.9-5.8 17.1-20.6 50.6-50.6 68-41.3 23.7-95.2 7.5-95.2 7.5s13-54.8 54.1-78.6zM264.7 426.2c-37.3-21.5-71.9-31.5-71.9-31.5s26 25 63.3 46.5c7.7 4.7 15.5 8.5 22.9 12.2-17.8 3.4-54.3 7.2-84.2-10.1-41.1-23.7-54-78.5-54-78.5s54-16.4 95.1 7.3c29.9 17.4 44.8 50.9 50.7 68-6.8-4.6-14-9.3-21.9-13.9zM389.8 541.7c37.3 21.5 71.8 31.5 71.8 31.5s-25.9-25-63.2-46.5c-7.9-4.5-15.5-8.5-22.9-12 17.8-3.4 54.1-7.3 84.1 9.9 41.2 23.9 54 78.7 54 78.7s-53.8 16.2-94.9-7.5c-30.1-17.4-44.8-50.9-50.7-68 6.6 4.7 13.8 9.4 21.8 13.9z" />
<glyph unicode="&#xe60b;" glyph-name="category-icon-12-tour-nhanh" data-tags="category-icon-12-tour-nhanh" d="M215.3 188.4c-5.9-1.1-10.7-2-14.9-2.6 3.5-4.4 6.9-8.7 10.5-12.8 5.1-5.3 10.1-10.4 14.9-15.4 2.4-2.5 4.8-5 7.2-7.4 2.6-2.2 5.1-4.4 7.6-6.6 5-4.3 9.9-8.5 14.6-12.6 2.3-2.1 4.9-3.9 7.3-5.6 2.5-1.8 4.9-3.5 7.3-5.2 4.8-3.4 9.4-6.7 13.8-9.9 4.6-2.9 9.2-5.5 13.6-8.1 4.3-2.6 8.5-5 12.5-7.4s8.1-4 11.9-5.9c7.6-3.6 14.2-7 20.1-9.5 6-2.3 11.1-4.2 15.3-5.8 8.3-3.1 12.7-4.8 12.7-4.8s-4.2 2.2-12.1 6.3c-3.9 2-8.8 4.6-14.5 7.5-5.6 3.2-11.7 7.3-18.6 11.7-3.4 2.3-7.2 4.3-10.8 7.1-3.6 2.7-7.4 5.6-11.3 8.6s-8 6-12.2 9.4c-3.9 3.6-8 7.3-12.2 11.1-2.1 1.9-4.2 3.8-6.4 5.8s-4.4 3.9-6.3 6.2c-4 4.4-8.2 9-12.5 13.6-2.1 2.3-4.3 4.7-6.5 7.1-2 2.6-4 5.2-6 7.8-4 5.2-8.1 10.6-12.3 16.1-0.6 0.8-1.1 1.7-1.7 2.6-1.1 0.1-2.2 0.3-3.4 0.5-2.1-0.7-5.2-1.3-7.6-1.8zM196.1 242.9c-0.1 0.2-0.2 0.3-0.3 0.5-2.6 6.5-6.5 14.7-8.9 21.6-1.3 3.6-2.6 7.2-3.9 10.8-1.2 3.7-2.3 7.5-3.5 11.3-2.5 7.5-4.1 15.4-6.2 23.2-3.4 15.8-5.9 32.1-7.3 48.7-1.1 16.6-1.2 33.5 0 50.5 1.4 17 4 33.9 7.8 50.7 3.7 16.8 9.2 33.2 15.5 49.2 6.4 16 14 31.5 22.9 46.1 8.8 14.6 18.6 28.7 29.4 41.6 10.9 12.9 22.6 24.8 34.9 35.8 12.4 10.8 25.6 20.4 39.1 29.1 3.4 2.1 6.8 4.1 10.2 6.2s7 3.8 10.4 5.7c3.4 1.9 6.9 3.7 10.5 5.3l5.3 2.5 2.6 1.3 1.3 0.6 0.3 0.2c0.4 0.2-2.6-1.3-1.1-0.6l0.8 0.3c4.1 1.7 8.2 3.4 12.2 5.1l6.1 2.5c2 0.8 4.2 1.8 5.7 2.2 3.3 1 6.6 2.1 9.9 3.1l4.9 1.6c1.6 0.6 3.2 1 5.1 1.5 7.2 1.7 14.1 3.8 21.1 5.1 7.1 1.1 13.9 2.8 20.8 3.5 27.4 3.7 53.5 3.3 77.1 0.5 23.6-3 44.6-8.6 62.6-14.8 4.5-1.6 8.8-3.2 13-4.7 4.1-1.8 8-3.5 11.7-5.2 7.6-3 14-7 20.1-10 11.7-6.7 20.7-12.2 26.5-16.5 5.9-4.1 9-6.3 9-6.3l76.5 118.8c0 0-5 2.7-14.3 7.7-9.2 5.2-23.3 11.8-41.5 19.2-9.2 3.4-19.2 7.7-30.6 10.8-5.6 1.7-11.5 3.5-17.6 5.3-6.2 1.5-12.6 3-19.2 4.5-26.5 5.7-56.9 9.9-90 10-33.1 0-68.8-3.9-105.1-13.2-9.1-2.1-18.1-5.3-27.2-8-9.1-2.9-18.1-6.7-27.2-10.1-2.2-0.8-4.6-1.8-7-2.9l-7.1-3.3c-4.7-2.2-9.5-4.4-14.2-6.6-2.6-1.1-4.2-2.2-6.2-3.3l-5.8-3.2c-3.8-2.2-7.7-4.3-11.6-6.5l-0.7-0.4c1.2 0.6-2-1-1.9-1l-0.4-0.3-11.2-7c-4.3-2.6-8.5-5.5-12.6-8.5s-8.4-5.8-12.4-8.9c-4-3.1-8.1-6.3-12.1-9.5-15.9-13.1-31-27.2-45-42.7-13.9-15.5-26.7-32.1-38.1-49.5-11.5-17.5-21.3-35.9-29.9-54.9-8.6-18.9-15.5-38.5-20.8-58.3s-9.3-39.8-11.4-59.8c-2.1-20-2.8-39.9-2.1-59.5 0.9-19.6 3.3-38.7 6.8-57.2 3.7-18.5 8.7-36.3 14.5-53.4 3.3-8.4 6.1-16.8 9.8-24.8 1.8-4 3.5-8 5.3-11.9 2-3.9 3.9-7.9 5.9-11.7 0.1-0.3 0.2-0.5 0.4-0.7l28.3-10.9c2.2 0.8 5.6 1.9 10.1 3.5zM904.1 445v0c-0.3 0.3-6 6-16.2 12.8l-0.4 0.3 0.3 0.4c0 0-0.1 0-6 3.6-15.7 10.4-38.2 21.1-69.2 21.1-3.3 0-6.7-0.1-10.2-0.4-2.9-0.1-8-0.7-14.3-1.4l6.2 9.5 4.9 0.2 4.4 26c0.9-1.4 3-3.6 8.2-5.4 4.9-1.6 14.2-2.3 23.9-2.3 6.7 0 13.6 0.3 19.2 0.8 12.1 1 17.9 10.3 18.2 22.9 0.2 10.7-4.5 16.6-11.5 18.8-1 0.7-3.2 1.6-8.4 1.6-4 0-9.8-0.5-18.2-2.1 0 0-15.4 1-26.4 1.6l9.3 67.7-6.8 2.4 0.6 5.9c0 0-7.1 1.7-18.5 1.7h-1.4c-12.1-0.1-6.6-2.6-9.2-4.9-2.6-2.4-41.8-80.1-41.8-80.1l6.3-1-38.9-74.1 12.3 1.6-0.1-0.2c-27.4-4.2-56-9-77.1-13.1-49.4-9.6-158-30.5-171.4-34.4-5.8-1.7-9.6-2.4-12.6-2.4-3.9 0-6.4 1.2-10.1 3.3-6.7 3.6-143.4 107-149.3 109.3-4 1.6-5.4 2.9-8.6 2.9-1.5 0-3.5-0.3-6.4-1.1-9-2.4-20.4-6.2-20.4-6.2l114.5-138.4-23.5-10.2c0 0 3.7-9.5 7.8-13.9-29.9-12.5-134.5-60.4-135-62.4-0.3-1-0.6-1.9 1.4-1.9 1.8 0 5.5 0.7 12.8 2.6 1.1 0.3 3 0.9 5.4 1.6h0.5c0.3 0.1 1.4 0.4 3 0.9 1.1-0.4 2.2-0.7 3.5-0.7l1.3 0.1c3.1 0.6 89.3 30.8 141.4 49 13.9-3.3 82.3-19.3 104.8-19.3h1.9c5.9 0.3 11.5 0.4 16.8 0.4 2.7 0 5.4 0 7.8-0.1 6.9-0.4 13.5-0.9 19.3-1.3-24.3-9-350-120.5-356.1-122.7-2.1-0.7-4.1-1-6-1-3.7 0-6.4 1-6.4 1s3.4-3.1 11.2-3.3h0.5c7.6 0 27.8 5.1 33.2 5.1l1.1-0.1c1.5-0.7 4-0.9 6.3-1.1 1.7-0.5 3.2-0.8 4.1-0.9h0.2c1.3 0 9.3 2.1 20.9 5.3 31 8.5 88.1 25 118.3 33.8l36-5.7c0 0 0.9-1.9 2.4-4.1 0.9-4.2 2.9-8.8 6.9-13 13.9-1.6 25.1-2.4 33.8-2.4 10.8 0 17.5 1.1 20.7 3.1h0.1c15.6 5.5 13.9 20.1 13.9 20.1 1.4 10.4-7.3 15.8-7.3 15.8l-0.9 0.3-0.3 0.5c2.4 0-0.4 2.2-12.9 5.1-2.4 0.4-4.4 0.6-6.4 0.6-3.4 0-6.6-0.6-11.1-2.1l-1.2-0.5c-10.9 3-11 3.1-11 3.1l90.6 29.1c0 0 1.8 1.5 4.2 3.1l-1.7-1.7 33.6-3.8c-0.6-5.6 0.4-12.7 7-17.7 11.3-3.3 22.6-4.8 32.3-4.8 8.4 0 15.6 1.2 20.3 3.5 3.8 1.9 6.3 4.1 8 6.1 8.9 9.3 6.1 22.7 6.1 22.7-0.4 2.1-1.1 3.7-1.9 5-2 4.1-7.1 8.7-19.5 8.8-1.4 0-2.8 0-4.1 0-12.6 0-21.9 0.9-26 1.4-0.3 0.7-0.3 1.4 0.6 2l-2.7-1.3c1.6 1.3 7.6 5.9 14.8 6.9 8.4 1.1 25.3 0 70 13.2 26.6 7.8 51.4 17 71.1 24 16.1 5.2 29.3 9 40.6 10.7 16.2 2.4 40.5 6.8 63.6 13.2 25.4 6.5 49.4 15.1 58.3 25.3 0 0 10.8 13.1 2.7 23.7 0 1.5-2 2-2 2zM560 321.4c0.8 1 2.1 1.7 3.9 1.7 0.7 0 1.6-0.1 2.6-0.4l-6.5-1.3zM626.2 321.8h0.1l-0.2 0.1 0.1-0.1zM624 321.1v0 0zM622.9 321l-0.5-0.1h-0.3l0.8 0.1zM622.9 321h-0.5zM624 321.1h0.1zM626.2 321.8h0.2zM560 321.4l6.5 1.3c-1 0.3-1.8 0.4-2.6 0.4-1.8 0.1-3-0.7-3.9-1.7z" />
<glyph unicode="&#xe60c;" glyph-name="category-icon-13-cong-nghiep-xay-dung" data-tags="category-icon-13-cong-nghiep-xay-dung" d="M649.6 120.1c-3.8 2.4-15.7 5.4-18.9 7.9l-66.9-44-54.4 54.4 46.8 74.5c-1.7 3.1-1.4 3.7-2.9 7.1l-86.3 15.4 0.3 83.9 62.9 10.9-31.3 30.6c-26.1-21.3-58.1-33.9-92.3-33.9h-0.2c-32.3 0-62.6 11.3-87.8 30.5l-31.9-30.5h-62.3c-28.7 0-51.2-9.8-68.8-30.1-51.2-59.3-42.6-186.8-38.5-225.9h541.9l-9.4 49.2zM276.9 484.6c4.1-35.6 19-67.2 40.8-90.4 4.6-4.9 9.4-9.4 14.5-13.4 6.5-5.2 13.4-9.7 20.7-13.5 16.4-8.5 34.5-13.4 53.7-13.4 19.3 0 37.3 4.9 53.7 13.4 7.3 3.8 14.1 8.3 20.7 13.5 5.1 4.1 10 8.6 14.6 13.5 21.7 23.2 36.6 54.5 40.7 89.9 0.4 0 0.8-0.1 1.2-0.1 22.6 0 41 21.1 41 47.1 0 15.8-6.7 29.6-17.1 38.2h-302.7c-10.3-8.6-17.1-22.4-17.1-38.2 0-24 15.4-43.5 35.3-46.6v0zM908.7 259.9v36.2l-75.4 13.6c-3.4 14-8.9 27.1-16.2 39.1l43.8 62.7-25.7 25.7-62.9-43.7c-12 7.3-25.1 12.8-39.1 16.1l-13.2 75.2h-36.2l-13.6-75.4c-14-3.4-27.1-8.9-39.1-16.2l-62.7 43.8-25.7-25.7 43.7-62.9c-7.3-12-12.8-25.1-16.1-39.1l-75.2-13.3v-36.2l75.4-13.6c3.4-14 8.9-27.1 16.2-39.1l-44-62.7 25.7-25.7 62.9 43.7c12-7.3 25.1-12.8 39.1-16.1l13.4-75.3h36.2l13.6 75.4c14 3.4 27.1 8.9 39.1 16.2l62.7-43.8 25.7 25.7-43.7 62.9c7.3 12 12.8 25.1 16.1 39.1l75.2 13.4zM701.8 222c-30.9 0-55.9 25-55.9 55.9s25 55.9 55.9 55.9c30.9 0 55.9-25 55.9-55.9 0-30.8-25-55.9-55.9-55.9v0zM349.1 771.1c-45.3-23.1-80.9-69.2-94.4-114l-3-9.6h-24.8v-54.4h366.4v54.4h-24.4l-3 9.6c-13.5 44.8-49.2 90.5-94.4 113.6v-118.4c-0.4-4.8-1.3-9.1-3.5-13.5-5.7-10.9-17-18.7-30-18.7h-54.8c-12.2 0-23.1 6.5-28.7 16.1-2.6 3.9-3.9 8.3-4.8 13.1-0.4 1.7-0.4 3-0.4 4.8v117zM383.1 634.5h54.4c7.8 0 14.4 4.4 17.8 10.9 1.7 3 2.6 6.1 2.6 9.6v143.1c0 3.5-0.9 6.5-1.7 9.6-3.9 10-13.9 17.4-25.2 17.4h-47.9c-10.4 0-19.1-7.8-20-17.8 0-0.9-0.4-1.7-0.4-2.6v-149.7c0-4.4 1.3-8.3 3.5-11.8 3.8-5.3 9.9-8.7 16.9-8.7v0z" />
<glyph unicode="&#xe60d;" glyph-name="category-icon-14-su-kien-giai-tri" data-tags="category-icon-14-su-kien-giai-tri" d="M727.6 442.9h-136.3v10.1c0 22.4-18.1 40.5-40.5 40.5h-10.2v14.8c0 13.2 10.8 24 24 24h193.6c44.8 0 81.2 36.4 81.2 81.2v91.4c0 44.8-36.4 81.2-81.2 81.2h-380v13.4c0 9.4-7.6 17-17 17h-128.8c-7.8 0-14.1-5.4-16.1-12.5h-55.4c-17.3 0-31.3-14-31.3-31.3v-30.4c0-17.3 14-31.3 31.3-31.3h55.4c2-7.2 8.3-12.5 16.1-12.5h128.7c9.4 0 17 7.6 17 17v13.4h380c13.3 0 24-10.8 24-24v-91.4c0-13.2-10.8-24-24-24h-193.5c-44.8 0-81.2-36.4-81.2-81.2v-14.8h-10.2c-22.4 0-40.5-18.1-40.5-40.5v-10.1h-136.3c-100.4 0-181.8-81.4-181.8-181.8s81.4-181.8 181.8-181.8c77.8 0 143.9 48.9 169.9 117.5h91.5c26-68.6 92.1-117.5 169.9-117.5 100.4 0 181.8 81.4 181.8 181.8-0.1 100.4-81.5 181.8-181.9 181.8v0zM215.5 739.8h-54.5c-1.5 0-2.7 1.2-2.7 2.7v30.4c0 1.5 1.2 2.7 2.7 2.7h54.5v-35.8zM336.8 240.5h-27.4v-27.4c0-13.4-10.8-24.2-24.2-24.2-13.3 0-24.2 10.8-24.2 24.2v27.4h-27.4c-13.3 0-24.2 10.8-24.2 24.2 0 13.3 10.8 24.2 24.2 24.2h27.4v27.4c0 13.4 10.8 24.2 24.2 24.2s24.2-10.8 24.2-24.2v-27.4h27.4c13.3 0 24.2-10.8 24.2-24.2s-10.9-24.2-24.2-24.2v0zM669.9 240.2c-16.8 0-30.4 13.6-30.4 30.5 0 16.8 13.6 30.4 30.4 30.4s30.4-13.6 30.4-30.4c0-16.9-13.6-30.5-30.4-30.5v0zM737.7 172.4c-16.8 0-30.5 13.6-30.5 30.4s13.6 30.5 30.5 30.5c16.8 0 30.4-13.6 30.4-30.5 0.1-16.8-13.6-30.4-30.4-30.4v0zM737.7 308c-16.8 0-30.5 13.6-30.5 30.4s13.6 30.4 30.5 30.4c16.8 0 30.4-13.6 30.4-30.4 0.1-16.8-13.6-30.4-30.4-30.4v0zM805.5 240.2c-16.8 0-30.4 13.6-30.4 30.5 0 16.8 13.6 30.4 30.4 30.4s30.5-13.6 30.5-30.4c0-16.9-13.7-30.5-30.5-30.5v0z" />
<glyph unicode="&#xe60e;" glyph-name="category-icon-15-khoa-hoc-dao-tao" data-tags="category-icon-15-khoa-hoc-dao-tao" d="M125.8 612.4c0 58.1 46.9 105 105 105s104.7-46.9 104.7-105c0-57.9-46.7-104.8-104.7-104.8s-105 46.9-105 104.8v0zM590.4 514.4c-16.9 10.1-38.6 4.6-49.1-11.9l-70-114.8-98.6 55.2c-44.6 27.2-66.1 40.2-132 40.2h-20.2c-127.6-15.1-105.4-117.5-105.4-117.5l15.3-315.8 225.1 2.6-8.8 313.2 120-56.8c5.4-3.1 11.4-4.6 17.4-4.6 11.9 0 23.6 6.2 30.3 17.1l87.9 144.2c10.2 16.7 5 38.5-11.9 48.9v0zM306.2 525.3c-7.8-6.8-16.3-12.4-25.6-17.1v-16.3c9.3-1.3 17.9-2.6 25.6-4.9v38.3zM893.5 846.3h-612.9v-129.6c9.3-4.4 17.9-10.1 25.6-16.9v120.8h561.9v-384.2h-270.7l-15.5-25.6h311.6v435.5zM473 410.7l15.5 25.6h-81.9l45.9-25.6h20.5zM689.5 670l-12.5 7-85.8-149.6 12.5-7 85.8 149.6z" />
<glyph unicode="&#xe60f;" glyph-name="category-icon-16-nong-lam-ngu-nghiep" data-tags="category-icon-16-nong-lam-ngu-nghiep" d="M670.5 214.3c1.4 1.2 2.8 2.4 4.7 3.8 3.4 2.5 7.3 4.2 11.2 5.1 4.8 5.2 11.1 8.9 18.2 10.5l-0.7 0.4-3.1 3-3.4 3.2c-1.4 1.4-2.9 2.7-4.3 4.1-4.5 1.3-8.5 3.5-11.8 6.4-1.5 1-3 2.2-4.3 3.5-1.7 0.8-3.3 1.7-5 2.6-2 1.2-4 2.4-6 3.6-2.7 1.6-5.5 3.3-8.2 4.8-10.6 5.9-18.1 13.7-24.1 20l-3.2 3.2c-11.6-7.7-25.4-12.2-40.4-12.2-40.3 0-73.2 32.8-73.2 73.2 0 39.1 30.9 70.9 69.6 72.8 0.3 2.8 0.6 5.4 0.9 7.5 0.7 4.4 1.4 8.7 2.3 13.1 0.6 2.9 1.3 5.8 2.1 8.7l0.7 2.6 0.3 1.3c0.5 2.2 1.1 4.3 1.7 6.4 1 3.2 2.1 6.4 3.2 9.6l0.4 1 0.5 1.3c1 2.9 2 5.8 3.1 8.6s2.4 5 3.3 6.6l0.7 1.8c-0.6 1.3-1.1 2.6-1.5 3.9-0.6 1.7-1 3.5-1.4 5.2-2.8 1.4-5.3 3.3-7.5 5.6-2 2.1-3.6 4.5-4.9 7.1-0.1 0-0.1 0-0.2 0-94.7 0-171.8-68.4-171.8-163.1 0-45.4 18-86.9 50.7-116.8 31.8-29.1 74.7-45.1 121-45.1 24.9 0 48.8 4.8 70.5 13.6 1.1 2.7 2.5 5.3 4.4 7.7 2.1 2.2 4 4 5.5 5.4zM236.8 423.6c-67.1 0-121.6-54.6-121.6-121.6 0-32.1 12.8-61.5 35.9-82.7 22.5-20.6 52.9-31.9 85.7-31.9s63.2 11.3 85.7 31.9c23.2 21.2 35.9 50.6 35.9 82.7 0 67.1-54.6 121.6-121.6 121.6zM236.8 250.5c-28.4 0-51.6 23.1-51.6 51.6 0 28.4 23.1 51.6 51.6 51.6 28.4 0 51.6-23.1 51.6-51.6s-23.2-51.6-51.6-51.6zM692.7 693.6c-3.8 44.8-36.2 44.8-48.4 44.8h-187.8c-16.8 0-47.8 0-57.4-47.5-5.4-26.7-17.3-83-26.4-126h-128.5v70.4c0 10.3-8.3 18.6-18.6 18.6s-18.6-8.3-18.6-18.6v-70.4h-31.3c-53.8 0-70.4-115.6-40.8-167.4 25.5 27.2 61.7 44.2 101.9 44.2 70.3 0 128.6-52.1 138.3-119.8h27.3c-1.3 8.9-2 18.1-2 27.3 0 50.4 19.9 96.6 56.1 130.3 34.6 32.2 80.9 50 130.7 50.7 0.5 3.8 1.4 7.5 3.3 10.9 2.6 4.8 6.1 9.1 10.3 12.5v11.1h-40.2v145.9h83.8c13.5 0 19.1-0.7 20.7-19.4 1.3-15.3 5.7-64.5 9.4-106.8 4.8-3.3 8.9-7.8 11.4-13.5l0.7-1.9c2-1.4 3.9-2.9 5.6-4.6v0l1.5-1.4 1.2-1.4c3.1-3.6 6.7-7.2 10.5-10.9-4 44.7-11 122.8-12.7 142.9zM538.3 564.9h-137.3c9.7 45.4 21.4 101.5 25.3 120.5 5.1 25.2 14.6 25.2 30.1 25.2h81.8v-145.7zM907.2 456.4c-0.4-3.1 0.8-6.2-0.5-9.2l-0.1-1-0.7-3-0.1-2.5 0.3-2c0-2.4 0-4.8 0-7.1 0-2.8-1.1-5.2-2.4-7.6l-0.8-3.2c0.3-3.6-1.4-6.4-3.8-8.9-2.2-2.3-2.5-5.6-1.2-8.5 0.6-1.4 0.8-3.1 0.8-4.7 0-5.6 0-11.2-0.1-16.8l-0.5-2.6c-1.1-1.9-1.3-3.9-1.1-5.9 0.2-2.4-0.7-4.6-1.4-6.8-0.9-2.8-2.9-5.1-3.2-8.2-0.2-1.7-0.4-3.4-0.9-5-0.6-1.6-1.4-3.2-2.4-4.7-1.3-1.9-2.8-3.9-4.5-5.5-2.5-2.3-4.4-5.1-6.7-7.5l-1.4-1.3c-1.4-1.6-3.1-2.7-5.3-3-1.7-0.3-2.1-0.8-2.1-2.5 0-6.1 0-12.1 0.1-18.2 0.1-3.7-0.1-7.4-1.8-10.8l-0.9-3.1c-1.1-2.6-1.1-5.4-1.9-8-1.3-4.4-3-8.7-6.5-12.1-1.4-1.3-2.2-3.2-3.5-4.6-2-2.3-4.1-4.6-6.3-6.7-1.7-1.6-3.7-2.9-5.6-4.3-2.9-2-6-3.4-9.2-4.8-1.9-0.9-3.6-2-5.4-3l-0.9-0.4c-4.2-0.6-7.8-3.2-12.1-3.4-1.4-0.1-2.8-0.3-4.1-0.6l-1.7-0.8c-1.6-1.2-3-2.8-4.7-3.8-3.9-2.3-7.6-5.1-12.2-6.1-1.3-0.3-2.6-0.8-3.9-1.3l-1.7-1c2-1 2.3-1.3 1.7-3.4-0.6-2.4-1.6-4.7-2.4-7.1-1.1-3.4-2.2-6.8-3.2-10.2-0.6-2.1-1-4.3-1.4-6.4-0.4-2.5-0.7-5-1-7.5l-0.1-1.4c-1-3.3-1-6.8-1-10.2l1.4-1.9h0.2c2.2 0.2 4.5-0.1 6.6 1.1l2.5 0.5c2 0 4.5-0.7 5.5-1.7 0.8-0.7 1.4-1.6 1.1-2.9l-2.6 1.2h-0.2l-0.6-0.1-0.4-2.1c-0.4-1.7-1.3-2.3-2.9-2.3h-1c-1.4-0.4-2.9-0.6-4.3-0.6-2.1 0-4.2 0.3-6.3 0.5l-1.4-2.7c-1.8-2-4.2-3.4-6.8-4.3l-0.5-0.1-2.3 0.5-0.1 0.5c-1.7-1.6-3.3-3.1-5-4.7-2-1.7-4-3.3-6-5l-2-1.7c-2-1.7-3.9-3.5-6-5.2l-2.1-0.8-1.4 0.3-0.6 0.2-0.8-0.5-0.7-0.4h-0.1l-0.6 0.9c-0.2 2.1 0.6 3.8 2.1 5.2 3.5 3.1 7 6.3 10.5 9.5l1.6 1.8-0.7 1.5c-1.9 0-3.7-0.1-5.6-0.2l-0.8-0.3-2.7-1h-0.8c-1.3 0-2.7-0.3-4-0.4l-1.8-0.2c-1.3-0.2-2.6-0.5-4-0.7l-1.6-0.1-2.5-0.6c-1.6-0.4-3.2-0.8-4.8-1.2l-2-0.6-2.9-1.2-2.9 1.3-0.4 0.3-0.3-0.1-1.4-0.8-0.5 1.7 1 2.2c1.3 1.5 2.7 2.8 4.8 3.3 2.9 0.6 5.8 1.5 8.7 2.3 1.9 0.5 3.8 0.8 6.2 1.3l-2 2.5-0.8 0.5-1.8-0.7h-0.3c0.4 1.3 0.7 2.6 2.1 3l3.3 0.7c4.2 0.1 8.5 0.2 12.7 0.2h0.1c1.3 0 2.5-0.2 3.7-1l1.1-0.3 1.2 0.3c2.6 1.5 4.4 3.6 5.5 6.4l-1 1.5-1.5 0.4-2 0.3h-0.4l-0.1-0.2-2.8 0.8c-1.4 0.7-2.8 1.3-4.3 1.9h-0.1l-0.8-0.4c-1.6-2.3-3.8-3.6-6.5-3.9l-1.8-0.6-1.8-0.5-1.8 0.5-0.9 0.2-2.2-1.4c-1.2-1.3-2.6-2.2-4.4-2.6l-1-0.5-2.6-1.4h-0.3l-0.3-0.1c-2.4-2.3-6-2.1-8.4-4.2l-2.2-0.7-1.7 0.1-0.9 1-2.1-1.4c-0.6 1.9-0.2 3.6 1.5 4.6 2.1 1.3 4.5 2.3 6.7 3.5l2.3 1.9c-1.7 0-3.4 0.3-5 0.3l-3.7-0.7-3.2-0.4c-1.6-0.3-3.3-0.6-4.9-0.8-2.6-0.4-5.3-0.8-7.9-1.2l-1.9-0.7-1.8-0.5-2.4 1-1.2 0.3h-1.1v1.3l2.5 2.6 2.1 1.6 0.7 0.3c5.3 1 10.7 2 16 3 1.2 0.2 2.4 0.2 3.8 0.2-0.2 1.6-1.5 2.3-2.5 3.3l-1.1 0.5-2.6-1.1c0.6 3.1 3.1 4.7 5.8 4.7h0.8c4.2-0.5 8.3-0.9 12.5-1.3 0.7-0.1 1.5 0 0.9-1.3l1.1 0.3c3.4 1.9 5.9 4.8 8.2 7.9l0.9 2.4c1.2 3.2 1.3 6.4 0.8 9.7l0.6 2.5 0.6 3.6 0.7 2.6 1.7 1.5h0.1l0.9 0.9c0.4 2.1 0.7 4.3 0.9 6.4 0.1 1.4 0.4 2.6 1.8 3.3l0.4 0.5-3.6 1.9c-2.9 1.4-5.8 2.5-8.6 4-2.3 1.3-4.5 2.9-6.7 4.3-1.6 1.1-3.3 2.1-4.9 3.2l-0.3 0.2c-4.3 4.1-8.6 8.1-12.8 12.3-1.2 1.2-2.3 1.9-3.8 1.9l-0.8-0.1-1.1-0.1-1.1 0.1-1.4 0.7-2 1.6-1.4 1.3c-0.5 1.8-1.7 2.6-3.4 3l-1.8 0.7c-1.6 0.8-3.3 1.6-4.9 2.5-4.9 2.9-9.8 5.9-14.7 8.7-7.3 4.1-12.9 10.1-18.6 16.1-2 2.1-4.1 4-6.2 6.1l-2.8 3.4c-2.3 3.3-4.7 6.6-6.8 10.1-2.6 4.2-5 8.4-7.4 12.7-0.7 1.2-1.1 2.6-1.6 3.9-1 2.5-1.9 5.1-2.8 7.6-0.8 2.2-1.8 4.4-2.5 6.6s-1.1 4.6-1.7 6.9c-0.4 1.7-1 3.4-1.4 5.1l-0.6 3.1c-0.7 3.7-1.4 7.4-2 11-0.4 2.7-0.6 5.5-0.9 8.2-0.4 2.9-0.8 5.8-1.2 8.7-0.2 1.6-0.2 3.3-0.2 5 0 3.7-0.1 7.4 0.1 11.1 0.1 3.1 0.5 6.2 1 9.2 0.6 3.8 1.2 7.7 2 11.5 0.7 3.4 1.6 6.7 2.5 10.1 0.5 2 1 4.1 1.6 6.1 1 3.3 2.2 6.6 3.3 9.8 1 2.9 2 5.8 3.1 8.7 0.6 1.4 1.5 2.7 2.2 4.1l1.3 2.9c1.4 4.1 3.7 7.8 6.2 11.3l2.3 3.1 0.2 0.6-2.1 3.2c-3.3 1.4-5.9 3.4-7 6.8-0.9 2.6-1.4 5.5-1.6 8.2-0.2 3.1 1.3 6 3 8.6 1.1 1.7 1.2 3.2 0.1 4.3l-1.9 1-1.5-1.5-2.5-0.1c-2.7 0-5.5 0.4-8.2 1.2h-0.2l-1-0.4h-0.1l-1.9 0.5-0.1 1.8c1.2 2.2 2.9 4 5.1 5.3 1.7 1 3.4 1.9 5.1 3 2.3 1.5 3.7 3.5 3.7 6.3l1.3 0.1 1.5 1.5 0.8 3.6 0.8 1.4 1.6-0.9c0.7 2.9 1.4 5.7 2.1 8.6 2-0.8 1.2-3.2 2.9-4l0.6 1.1c0.4 1.7 0.7 3.5 1.2 5.2l0.9 1.4 1.2-1.1 0.2-0.6 0.9-1.4 1.5 1.3 1.4 3 1.5 2.1 0.6 0.3 0.7-0.8 0.4-1.7 1.1-1.1 0.6 0.1 3 0.7 0.6 0.1 2-1.5c1.3-3 0.4-6-2.4-7.7l-1.1-0.8c1.5-0.3 3-0.5 4.4-0.9l3.6-1.1c3.2-1.5 6.3-3.3 8.9-5.8l0.2-0.2c5.6-6.6 12-12.5 18.2-18.5 3.2-3.1 5.2-7.1 7.2-11 2.5-5.1 4.6-10.5 6-16 1.4-5.2 3-10.3 4.3-15.5 1.2-4.5 1.9-9.1 3.2-13.6 1.1-3.6 2.6-7.2 5.2-10l2.6-2 1.5-0.9c2.9-2.3 6-4.4 9.4-6 3.2-1.5 6.4-3.1 9.7-4.1 4.2-1.2 8.6-2 12.9-2.7 5.4-0.9 10.8-1.7 16.2-2.1 2.4-0.2 4.9-0.4 7.3-0.4 2.2 0 4.4 0.2 6.6 0.8 3.3 0.9 6.7 1.2 10.1 1.8 4.7 0.8 9.4 1.7 14.1 2.5l1 0.2c3.5 0.4 7.1 0.5 10.6 1.3 4.5 1.1 9 1.3 13.6 2 4.3 0.6 8.7 1.2 13.1 1.6 2.3 0.2 3.8 1.1 5.3 3 4 5.2 6.2 11.4 9.6 16.8 1.6 2.5 2.9 5.2 4.7 7.4 1.6 2 3.7 3.7 5.7 5.4 2.4 2 5.1 3.5 8 4.7 3 1.3 6.1 2.4 9.3 2.4l2-0.1c3.1-0.5 6.3-1.1 8-4.4l1.2-0.4c2.9 0 5.5-0.6 7.8-2.7l1.4-3c0-1.9 0.2-3.8-1.1-5.4l0.5-1.6 1-2.2 0.1-2.2c0.4-3.2-0.2-6.1-1.7-8.9l-1.1-2.6h0.9z" />
<glyph unicode="&#xe610;" glyph-name="category-icon-am-thuc-thuc-pham-khac" data-tags="category-icon-am-thuc-thuc-pham-khac" d="M236.1 427.1c138.5 1.1 415.4 2.5 553.9 0 3.9-0.1 18.2-0.6 11.4 10.9-14.4 24.3 3.1 30.2-16.8 58.1-21.8 30.7-43.1 20.7-65 51.4-21.8 30.7-0.5 40.7-22.4 71.4-21.8 30.7-43.1 20.7-65 51.4-21.8 30.7-0.5 40.7-22.4 71.4-21.8 30.7-42 21.3-65 51.4-32.8 43.2-66.1 0-66.1 0-21.8-30.7-43.1-20.7-65-51.4-21.8-30.7-0.5-40.7-22.4-71.4-21.8-30.7-43.1-20.7-65-51.4-21.8-30.7-0.5-40.7-22.4-71.4-21.8-30.7-43.1-20.7-65-51.4-19.5-27.4-2.1-33.3-15-56.9-6.4-12.4 8-12.2 12.2-12.1v0zM852.5 392.3h-681c-32.4 0-45.6-19.1-29.4-42.4 0 0 192.3-219.3 369.9-219.3s369.9 219.3 369.9 219.3c16.2 23.3 3 42.4-29.4 42.4v0zM358.1 132.9v-53.8c0-14.1 13.7-25.5 30.7-25.5h258.8c17 0 30.7 11.4 30.7 25.6v57.1c-39.9-11.2-122.1-28.5-166.3-28.5-39.7-0.1-117.6 16.1-153.9 25.1v0zM331.1 766c1.9-1.9 4.4-2.9 6.9-2.9s5 1 6.9 2.9l13.2 13.2 13.2-13.2c1.9-1.9 4.4-2.9 6.9-2.9s5 1 6.9 2.9c3.8 3.8 3.8 10 0 13.8l-13.2 13.2 13.2 13.2c3.8 3.8 3.8 10 0 13.8s-10 3.8-13.8 0l-13.2-13.2-13.2 13.2c-3.8 3.8-10 3.8-13.8 0s-3.8-10 0-13.8l13.2-13.2-13.2-13.2c-3.8-3.8-3.8-10 0-13.8v0zM155.5 522.9c1.9-1.9 4.4-2.9 6.9-2.9s5 1 6.9 2.9l13.2 13.2 13.2-13.2c1.9-1.9 4.4-2.9 6.9-2.9s5 1 6.9 2.9c3.8 3.8 3.8 10 0 13.8l-13.2 13.2 13.2 13.2c3.8 3.8 3.8 10 0 13.8s-10 3.8-13.8 0l-13.2-13.2-13.2 13.3c-3.8 3.8-10 3.8-13.8 0s-3.8-10 0-13.8l13.2-13.2-13.2-13.2c-3.9-3.9-3.9-10 0-13.9v0zM688.9 785.5c1.9-1.9 4.4-2.9 6.9-2.9s5 1 6.9 2.9l13.2 13.2 13.2-13.2c1.9-1.9 4.4-2.9 6.9-2.9s5 1 6.9 2.9c3.8 3.8 3.8 10 0 13.8l-13.2 13.2 13.2 13.2c3.8 3.8 3.8 10 0 13.8s-10 3.8-13.8 0l-13.1-13.2-13.2 13.2c-3.8 3.8-10 3.8-13.8 0s-3.8-10 0-13.8l13.2-13.2-13.2-13.2c-3.9-3.8-3.9-9.9-0.1-13.8v0zM783.6 570c1.9-1.9 4.4-2.9 6.9-2.9s5 1 6.9 2.9l13.2 13.2 13.2-13.2c1.9-1.9 4.4-2.9 6.9-2.9s5 1 6.9 2.9c3.8 3.8 3.8 10 0 13.8l-13.2 13.2 13.2 13.2c3.8 3.8 3.8 10 0 13.8s-10 3.8-13.8 0l-13.2-13.2-13.2 13.2c-3.8 3.8-10 3.8-13.8 0s-3.8-10 0-13.8l13.2-13.2-13.2-13.2c-3.9-3.8-3.9-10 0-13.8v0z" />
<glyph unicode="&#xe611;" glyph-name="category-icon-balo-tui-xach" data-tags="category-icon-balo-tui-xach" d="M738.1 700.6c12.1-10.3 23.1-21.2 33-32.8v162.4c0 8.8-7.1 15.9-15.9 15.9h-123c-8.8 0-15.9-7.1-15.9-15.9v-64.4c45.3-13.4 86.8-35.4 121.8-65.2v0zM222 501.2v-394.1c0-30.9 29.4-55.9 65.7-55.9h91.1c-39.4 0-71.5 32.1-71.5 71.5v305.4c0 54.7 21.3 106.1 60 144.7s90.1 60 144.7 60c54.7 0 106.1-21.3 144.7-60 38.7-38.7 60-90.1 60-144.7v-305.4c0-39.4-32.1-71.5-71.5-71.5h91.1c36.3 0 65.7 25 65.7 55.9v394.1c0 136.4-129.8 246.9-290 246.9-160.2 0.1-290-110.5-290-246.9v0zM285.9 700.6c35 29.8 76.5 51.8 121.8 65.2v64.4c0 8.8-7.1 15.9-15.9 15.9h-123c-8.8 0-15.9-7.1-15.9-15.9v-162.5c9.9 11.7 20.9 22.6 33 32.9v0zM512 600.3c-95.1 0-172.2-77.1-172.2-172.2v-305.4c0-21.5 17.5-39 39-39h266.4c21.5 0 39 17.5 39 39v305.4c0 95.1-77.1 172.2-172.2 172.2v0zM607.8 355h-191.6c-9 0-16.2 7.3-16.2 16.2 0 9 7.3 16.2 16.2 16.2h191.7c9 0 16.2-7.3 16.2-16.2s-7.3-16.2-16.3-16.2v0zM607.8 434.6h-191.6c-9 0-16.2 7.3-16.2 16.2s7.3 16.2 16.2 16.2h191.7c9 0 16.2-7.3 16.2-16.2s-7.3-16.2-16.3-16.2v0z" />
<glyph unicode="&#xe612;" glyph-name="category-icon-bat-dong-san-khac" data-tags="category-icon-bat-dong-san-khac" d="M904.7 108.6l-74.9 261.3c-2.3 8-9.7 13.6-18 13.6h-31.8v-133.9c0-31-25.2-56.2-56.2-56.2h-423.2c-31 0-56.2 25.2-56.2 56.2 0 0-0.3-0.4-0.3-0.5 0 0.1-0.1 0.3-0.1 0.5v133.8h-31.8c-8.3 0-15.7-5.5-18-13.6l-74.9-261.3c-1.6-5.7-0.5-11.7 3-16.4s9.1-7.5 14.9-7.5c0.1 0 749.4 0 749.4 0 5.9 0 11.4 2.8 14.9 7.5 3.7 4.8 4.8 10.9 3.2 16.5v0zM249.4 520.4l262.6 225.8 262.6-225.8c5.3-4.5 11.8-6.8 18.3-6.8 7.9 0 15.8 3.3 21.3 9.8 10.1 11.8 8.8 29.5-3 39.6l-280.9 241.5c-10.5 9.1-26.1 9.1-36.6 0l-280.9-241.5c-11.8-10.1-13.1-27.8-3-39.6 10.2-11.8 27.9-13.1 39.6-3v0zM499.8 710.4l-211.7-182.6c-4.1-3.6-6.5-8.7-6.5-14.2v-264c0-10.3 8.4-18.7 18.7-18.7h423.2c10.4 0 18.7 8.4 18.7 18.7v264c0 5.4-2.4 10.6-6.5 14.2l-211.5 182.6c-7 6-17.4 6-24.4 0v0zM493.3 313.7c0-10.3-8.4-18.7-18.7-18.7h-65.6c-10.4 0-18.7 8.4-18.7 18.7v65.6c0 10.3 8.4 18.7 18.7 18.7h65.5c10.3 0 18.7-8.4 18.7-18.7v-65.6zM493.3 454.2c0-10.3-8.4-18.7-18.7-18.7h-65.6c-10.4 0-18.7 8.4-18.7 18.7v65.6c0 10.4 8.4 18.7 18.7 18.7h65.5c10.3 0 18.7-8.4 18.7-18.7v-65.6zM530.7 519.8c0 10.4 8.4 18.7 18.7 18.7h65.6c10.3 0 18.7-8.4 18.7-18.7v-65.6c0-10.3-8.4-18.7-18.7-18.7h-65.5c-10.4 0-18.7 8.4-18.7 18.7v65.6zM530.7 379.3c0 10.3 8.4 18.7 18.7 18.7h65.6c10.3 0 18.7-8.4 18.7-18.7v-65.6c0-10.3-8.4-18.7-18.7-18.7h-65.5c-10.4 0-18.7 8.4-18.7 18.7v65.6z" />
<glyph unicode="&#xe613;" glyph-name="category-icon-ca-canh-thuy-sinh-thu-nuoi" data-tags="category-icon-ca-canh-thuy-sinh-thu-nuoi" d="M754.9 551.2c0-18.6-15.4-33.7-34-33.7s-33.7 15.1-33.7 33.7c0 18.6 15.1 33.8 33.7 33.8s34-15.2 34-33.8v0zM844.8 698.7h4.3c11.3 0 20.4 9.3 20.4 20.7v54.8c0 11.6-9.3 20.6-20.4 20.6h-674.1c-11.3 0-20.4-9-20.4-20.6v-55.1c0-11.3 9.1-20.4 20.4-20.4h4.5c-40.8-63.4-62.2-136.2-62.2-212.5 0-140.9 74.2-264.8 185.8-334.8v-50.3h417.8v50.3c111.5 70 185.8 193.8 185.8 334.8 0 76.6-21.2 149.1-61.9 212.5v0zM182.5 614.4c12.8 32.7 30.4 63.7 52.8 92.1 5 6.1 6.1 14.6 2.5 21.6-3.5 7.1-10.6 11.6-18.6 11.6h-23.6v14.1h632.8v-14.1h-23.6c-8.1 0-15.1-4.5-18.4-11.6-3.5-7.3-2.5-15.6 2.3-21.6 13.3-16.8 24.7-34.5 34.7-53.1-7.8 5.8-16.1 11.1-24.7 15.6-30.4 16.1-65.7 24.2-100.4 23.5-35.2 0-69.3-8.6-101.5-20.2-32.2-12.3-62.1-28.9-90.6-47.3-14.1-9.9-26.7-18.9-40-27.2-13.6-8.6-27.2-16.4-41-23.6-27.6-15.1-56.8-26.5-87.1-33-30-6.1-61.2-6.3-90.4 3.7-27.1 9.1-52.3 26.7-71.7 50.6l6.5 18.9zM512 132.6c-194.8 0-353.6 158.6-353.6 353.6 0 34.5 5.3 68.5 14.8 101l2.3 6c12.9-27.6 36.3-51 64.7-65.9 31.5-16.1 68.2-20.4 102.7-16.4 70 8.3 131.6 44.3 185 81.6 26.4 17.8 54.1 33.2 82.8 45.6 28.5 12.6 58.6 20.9 89.1 24.2 46.1 5 94.1-5.8 134.9-31.7 3-7.1 6.1-13.9 8.8-20.9l8.5-25.9c8.8-31.2 13.9-63.9 13.9-97.4-0.3-195.2-158.8-353.8-353.9-353.8v0zM518.8 387.1c0-0.3-5 0.5-16.1 3.3-1.5 0.3-3 0.5-4.5 0.8-23.9 23.4-71.2 35.2-57.6 13.1 3-5 6.3-11.3 9.8-17.8-9.5-2.6-16.1-4.6-16.1-4.6-28.9-13.3-52.6-29.2-67-45l-43.3 25v-102.2l39.8 32.5c14.4-16.6 42.1-37.3 75.8-51.4-4.3-7.1-8.8-13.9-12.6-19.1-15.9-21.7 36.5-12.4 61.4 10.8 12.3 1 35.2 9.3 35.2 9.5 39 18.6 82.8 70 82.8 70s-1.8 3.8-1.3 4.3c-0.2 0.1-25.6 49.4-86.3 70.8v0zM550.8 314.1c-8.8 0-15.9 7.1-15.9 15.9 0 8.5 7.1 15.6 15.9 15.6s15.9-7.1 15.9-15.6c-0.1-8.8-7.1-15.9-15.9-15.9v0zM687.2 416c0-23.9-19.4-43.2-43.3-43.2-23.6 0-43 19.3-43 43.2 0 23.7 19.4 43 43 43 23.9 0.1 43.3-19.3 43.3-43v0z" />
<glyph unicode="&#xe614;" glyph-name="category-icon-camera-giam-sat-thiet-bi-an-ninh" data-tags="category-icon-camera-giam-sat-thiet-bi-an-ninh" d="M208.6 506.5l-22.1-7.4c0 0-3.8-1.8-5.6 3.4-2 6.1-8.2 24.5-8.2 24.5-3.5 10.5-15 16.2-25.5 12.7l-20.3-6.8c-10.5-3.5-16.2-15-12.7-25.4l57.2-171.3c3.5-10.5 15-16.2 25.5-12.7l20.3 6.8c10.5 3.5 16.2 15 12.7 25.4 0 0-6.1 18.3-8.2 24.5-1.5 4.5 2.4 6.1 2.4 6.1l22.1 7.4c16.8 5.6 25.9 23.9 20.3 40.7l-17.2 51.9c-5.6 16.7-23.9 25.8-40.7 20.2v0zM782 530.2l-80.1 234.2c-5.1 13.6-23.9 19.2-41.8 12.4l-461.1-173.2c-17.9-6.7-33.5-26.7-23.2-36.9 3.2-3.2 32.8-8.1 68.9-8.3 2.9 0 8.3 0.2 11-6.4l59.5-178.1c6-18 27.7-27 48.2-20.2l392.3 131.3c20.5 6.9 32.3 27.2 26.3 45.2v0zM890.9 325.6h-11.6c-10.9 0-19.8-8.9-19.8-19.8v-64.5c-0.1 0 0.2-1.1-1.2-1.1h-150.6c-2.6 0-2.1-1.8-1.9-2.7 0.6-3.5 1-7.1 1-10.7 0-13.5-4.4-25.9-11.9-36-0.5-0.6-1.3-1.9 1.5-1.9h162c0.9 0 1.3-0.3 1.3-0.9v-51.8c0-10.9 8.9-19.8 19.8-19.8h11.6c10.9 0 19.8 8.9 19.8 19.8v169.6c-0.1 10.9-9 19.8-20 19.8v0zM620.6 377.4c-3.4 10.4-14.6 16.1-25 12.7l-11-3.6c-10.4-3.4-16.1-14.6-12.8-25l29.3-90.4c1.2-1.9 2.5-1.2 3.3-0.4 10.9 10.3 25.5 16.6 41.7 16.6 1.3 0 3.6 0.2 3.2 1.5l-28.7 88.6zM686.9 226.8c0-22.6-18.3-40.8-40.8-40.8-22.6 0-40.8 18.3-40.8 40.8 0 22.6 18.3 40.8 40.8 40.8s40.8-18.3 40.8-40.8v0z" />
<glyph unicode="&#xe615;" glyph-name="category-icon-ca-phe-com-van-phong" data-tags="category-icon-ca-phe-com-van-phong" d="M772.3 793.3h-51.6v18.4c0 19.6-15.9 35.5-35.5 35.5h-346.4c-19.6 0-35.5-15.9-35.5-35.5v-18.4h-51.6c-19.6 0-35.5-15.9-35.5-35.5v-44.6c0-19.6 15.9-35.5 35.5-35.5l28.6-0.2 52-598.5c1.6-18.3 16.9-32.4 35.4-32.4h288.5c18.4 0 33.8 14.1 35.4 32.4l52 598.7h28.6c19.6 0 35.5 15.9 35.5 35.5v44.6c0 19.7-15.8 35.5-35.4 35.5v0zM429 301.5c-33.1 33.1-22.8 97.1 23.1 142.9 42.3 42.3 100 54.4 134.7 30-10.1-18.6-24-35.8-43-50.5-12.2-9.4-24.9-16.4-36-22.6-7.6-4.2-14.7-8.2-20.7-12.3-29.2-20.1-49.6-52.9-56.8-88.6-0.5 0.3-0.9 0.7-1.3 1.1v0zM571.9 324.6c-41.1-41.1-96.7-53.6-131.7-32 40.9 58.6 81 76.7 81 76.7 41.9 20.9 63.9 57.3 73.2 98.8 0.2-0.2 0.4-0.4 0.6-0.6 33.1-33.1 22.7-97.1-23.1-142.9v0z" />
<glyph unicode="&#xe616;" glyph-name="category-icon-cay-giong-con-giong" data-tags="category-icon-cay-giong-con-giong" d="M896 183c-0.3 3.4-0.8 6.8-1.8 10.3-4.3 15.9-17.1 29.1-33 33.6-18.2 5.2-35.3 0.3-47.2-10.2-9.6-8.4-23.2-7.9-32.8 0.4-8.6 7.4-19.8 11.9-32.1 11.9s-23.4-4.5-32.1-11.9c-8.3-7.2-21.5-7.2-29.8 0-8.6 7.4-19.8 11.9-32.1 11.9s-23.4-4.5-32.1-11.9c-9.8-8.5-23.4-8.5-33.2 0-8.7 7.4-19.8 11.9-32.2 11.9-12.2 0-23.4-4.5-32-11.9-9.3-8-22.6-8-32 0-8.6 7.4-19.8 11.9-32 11.9-12.3 0-23.5-4.5-32.2-11.9-9.8-8.5-23.4-8.5-33.2 0-8.7 7.4-19.8 11.9-32.2 11.9-12.2 0-23.3-4.5-31.9-11.8-9.2-7.9-22.3-7.9-31.6 0-8.6 7.3-19.7 11.8-31.9 11.8-12.3 0-23.4-4.5-32.1-11.9-9.6-8.3-23.2-8.8-32.8-0.4-11.9 10.6-29.1 15.4-47.3 10.2-15.8-4.5-28.6-17.7-32.9-33.6-0.9-3.4-1.5-7-1.8-10.3l-0.6-50.5c0-15.5 12.9-27.7 28.5-27.7h718.4c15.5 0 27.9 12.2 27.9 27.7v50.5zM612.3 393.5c-5.9-10.8-2-24.3 8.7-30.2 10.8-5.9 24.3-1.9 30.2 8.8 5.9 10.8 11.4 41.7 0.7 47.6s-33.7-15.5-39.6-26.2v0zM632.9 519.1c10.3-6.5 24-3.5 30.6 6.7 6.6 10.3 3.6 24-6.7 30.7-10.3 6.6-40.8 14.3-47.4 3.9-6.6-10.3 13.2-34.7 23.5-41.3v0zM625.7 621.8c11.5-4.1 24.3 1.8 28.4 13.4 4.1 11.5 4.8 42.9-6.7 47s-30.9-20.6-35.1-32.1c-4.2-11.4 1.9-24.2 13.4-28.3v0zM740.2 463.6c8.6 8.7 22.3 37 13.6 45.5-8.8 8.7-36.7-5.7-45.3-14.4-8.6-8.8-8.5-22.8 0.3-31.4 8.7-8.6 22.8-8.4 31.4 0.3v0zM712.3 302.6c12.3 0 22.3 9.9 22.3 22.2s-10 42-22.3 42c-12.2 0-22.2-29.7-22.2-42s10-22.2 22.2-22.2v0zM811.7 348.7c11.9-2.8 23.9 4.5 26.7 16.5 2.8 11.9-4.6 23.9-16.5 26.7s-43.2 0-46-12c-2.9-11.9 23.9-28.4 35.8-31.2v0zM306.8 308.6l284.9 147.1-126.2 337.2-311.5-76.1c-31.3-11.8-47.3-46.7-35.5-78.1l110.3-294.6c11.7-31.4 46.6-47.3 78-35.5v0zM256.5 529.9l24.3 9.1c-2.3 2.2-5 5.3-8.2 9.6-9.7 13.3-20 32.9-16.8 35.2 2.6 1.9 13.3-8 22.4-18.8 0 2.3 0.1 4.7 0.3 7.3 1.5 28.3 9.2 65.7 16.1 65.4 6.1-0.3 9.6-30.5 9.2-57 1.2 1.5 2.3 3.1 3.7 4.7 24.2 30.1 62.5 65.5 69.8 59.6 6.3-5-12.2-38.7-32.8-67.2 43.9 15.6 101.4 27.5 105.3 17.1s-47.3-39.2-90.7-56.3c34.3-7.9 70.3-21.2 68.9-29.1-1.7-9.3-53.9-7.8-91.8-1-2 0.4-4 0.8-5.9 1.1 17.7-19.7 34.9-44.7 30.5-49-4.9-4.8-35.3 18.4-55 38.6-1.8 1.9-3.5 3.7-5.1 5.4 0.3-14.2-1.2-28.7-4.5-29-4-0.3-9.1 21.2-10.4 37.6-0.5 5.3-0.5 9.4-0.2 12.5l-24.3-9.1c-3.6-1.4-7.6 0.5-9 4.1-1.3 3.9 0.5 7.9 4.2 9.2v0z" />
<glyph unicode="&#xe617;" glyph-name="category-icon-cong-nghiep-khac" data-tags="category-icon-cong-nghiep-khac" d="M524.5 572.8c6.1 6.7 10.2 16 10.2 28 0 7.5-6 13.5-13.5 13.5-7.4 0-13.5-6-13.5-13.5 0-5-1.4-8-3.2-9.9l-3.2 2.9c-2.6 2.4-6.6 2.3-9.1-0.1l-4.5-4.3c-4.5 2-8 6-8 13.7 0 12.2 12.1 15.1 14.3 15.6 6.5 1.1 11.2 6.7 11.2 13.3v38h15l18.8 94.2h-20.3v67.3h-13.5v-67.3h-13.5v67.3h-13.4v-67.3h-19.9l13.3-94.2h6.6v-28.4c-12.2-5.5-25.6-17.3-25.6-38.5 0-15 6.2-25.7 15-32.6l-235.7-223.4h-116.9v-282.6h793.8v282.6h-134.7l-249.7 225.7zM480.2 563.6c5.4-1.9 11.2-3 16.9-3s11.3 1.4 16.5 4l240.6-217.5h-502.7l228.7 216.5zM155.4 306.8h13.5v-201.8h-13.5v201.8zM195.8 306.8h26.9v-201.8h-26.9v201.8zM249.6 306.8h26.9v-201.8h-26.9v201.8zM303.4 306.8h26.9v-201.8h-26.9v201.8zM357.2 306.8h26.9v-201.8h-26.9v201.8zM411.1 306.8h26.9v-201.8h-26.9v201.8zM464.9 306.8h26.9v-201.8h-26.9v201.8zM518.7 306.8h26.9v-201.8h-26.9v201.8zM572.5 306.8h26.9v-201.8h-26.9v201.8zM626.3 306.8h26.9v-201.8h-26.9v201.8zM680.2 306.8h26.9v-201.8h-26.9v201.8zM734 306.8h26.9v-201.8h-26.9v201.8zM868.6 104.9h-26.9v201.9h26.9v-201.9zM814.8 104.9h-26.9v201.9h26.9v-201.9z" />
<glyph unicode="&#xe618;" glyph-name="category-icon-cong-viec-thoi-vu-cong-tac-vien" data-tags="category-icon-cong-viec-thoi-vu-cong-tac-vien" d="M600.2 311.9l-87 40.1-41.8 35.3-66.9-66.5 28.8-192.8c0.1-0.7-0.1-1.4-0.5-1.9l-30.5-41.8c-0.5-0.7-1.3-1.1-2.1-1.1s-1.6 0.4-2.1 1.1l-30.4 41.7c-0.4 0.5-0.6 1.2-0.5 1.9l28.8 192.8-66.9 66.5-41.7-35.2-87-40.1c-12.9-5.3-25.4-13.2-32-27.3 0 0-94.6-225.3-43.3-225.3h550.5c51.3 0-43.3 225.3-43.3 225.3-5.7 13.4-19.2 22-32.1 27.3v0zM400.3 388.5c89 0 155.5 82.9 157 222 1 96.5-45 154.3-157 154.3s-157.9-57.8-157-154.3c1.5-139.1 68-222 157-222v0zM703.4 837.4c-65.8 0-124.5-31.2-162-79.6 3.9-3.2 7.6-6.5 11.1-10.1 7-7 13.1-14.8 18.5-23.2 29.2 41.8 77.6 69.3 132.4 69.3 89 0 161.3-72.4 161.3-161.3 0-89-72.4-161.3-161.3-161.3-44.6 0-85 18.2-114.2 47.5-3.9-16-8.8-31.2-14.8-45.3 35.2-28.6 80.1-45.8 129-45.8 113 0 204.9 91.9 204.9 204.9 0.1 113-91.9 204.9-204.9 204.9v0zM703.4 763.1c-9 0-16.4-7.3-16.4-16.4v-119.9c0-9 7.3-16.4 16.4-16.4h95.1c9 0 16.4 7.3 16.4 16.4 0 9-7.3 16.4-16.4 16.4h-78.7v103.5c0 9.1-7.3 16.4-16.4 16.4v0z" />
<glyph unicode="&#xe619;" glyph-name="category-icon-cho-thue-nha-dat" data-tags="category-icon-cho-thue-nha-dat" d="M408.7 368.7h-254.7c-7.9 0-14.4-6.4-14.4-14.4v-204.2c0-7.9 6.5-14.4 14.4-14.4h112.9v-76.9c0-7.9 6.5-14.4 14.4-14.4 8 0 14.4 6.5 14.4 14.4v76.9h112.9c7.9 0 14.4 6.5 14.4 14.4v204.2c0.1 8-6.4 14.4-14.3 14.4v0zM394.2 164.5h-225.8v175.4h225.8v-175.4zM278.2 229.5c-7.5 0-14.3 2.5-19.1 5.1l-3.4-13.4c4.4-2.5 11.8-4.6 19.6-4.9v-10.9h11.3v11.6c13.2 2.3 20.4 11.1 20.4 21.3 0 10.3-5.5 16.7-19.2 21.5-9.8 3.7-13.8 6.1-13.8 9.9 0 3.2 2.5 6.5 9.9 6.5 8.2 0 13.6-2.7 16.5-3.9l3.3 12.9c-3.8 1.9-9 3.5-16.6 3.9v10.1h-11.3v-10.9c-12.3-2.4-19.4-10.3-19.4-20.5 0-11.1 8.4-16.9 20.7-21 8.5-2.9 12.2-5.7 12.2-10 0-4.7-4.5-7.3-11.1-7.3v0zM845.9 558.5h-670.3c-7.9 0-14.4-6.5-14.4-14.4v-143.7c0-7.9 6.5-14.4 14.4-14.4h131.4c8 0 14.4 6.5 14.4 14.4v57.4h199v-98.8h-66c-8 0-14.4-6.5-14.4-14.4v-129.7c0-1.7 0.4-3.3 1-4.8-0.6-1.5-1-3.2-1-4.8 0-8 6.4-14.4 14.4-14.4h161c7.9 0 14.3 6.5 14.3 14.4v180.8h156.2v-180.8c0-8 6.4-14.4 14.4-14.4h45.6c8 0 14.4 6.4 14.4 14.4v338.8c0.1 8-6.3 14.4-14.4 14.4v0zM906 587.8c-0.1 1-0.3 1.9-0.6 2.9-0.2 0.9-0.3 1.8-0.7 2.7-0.1 0.1-0.1 0.3-0.1 0.5l-101 199.4c-0.3 0.6-0.8 1-1.3 1.5-0.6 0.9-1.1 1.7-1.9 2.5-0.7 0.6-1.5 1.1-2.3 1.6s-1.6 1-2.4 1.4c-1 0.3-2 0.5-3.1 0.6-0.7 0.1-1.3 0.3-2 0.3h-31.2v36c0 8-6.4 14.4-14.4 14.4h-93.7c-8 0-14.4-6.5-14.4-14.4v-36h-406c-0.7 0-1.4-0.3-2.1-0.4-1-0.1-2-0.2-3-0.6-0.9-0.4-1.6-0.9-2.5-1.4-0.8-0.5-1.5-0.9-2.2-1.5-0.8-0.7-1.4-1.5-1.9-2.5-0.4-0.6-1-0.9-1.3-1.6l-98.6-199.4c-0.1-0.1 0-0.3-0.1-0.3-0.4-0.9-0.6-1.8-0.8-2.7-0.2-1-0.5-1.9-0.6-2.9 0-0.1-0.1-0.2-0.1-0.3 0-0.7 0.3-1.3 0.4-2 0.1-1.1 0.2-2.1 0.6-3.2 0.3-0.8 0.8-1.5 1.3-2.3s0.8-1.6 1.5-2.3c0.7-0.8 1.5-1.3 2.5-1.9 0.6-0.4 1-1 1.6-1.3 0.1-0.1 0.3-0.1 0.4-0.1 1.7-0.8 3.7-1.3 5.9-1.3 0 0 0-0.1 0.1-0.1h759.3c1.7 0 3.4 0.4 5.1 1.1 0.3 0.1 0.6 0.2 0.9 0.3 0.1 0.1 0.3 0.1 0.6 0.2 0.6 0.4 1 0.9 1.5 1.3 0.9 0.6 1.7 1.2 2.5 2 0.6 0.6 1 1.4 1.5 2.2s1 1.5 1.4 2.5c0.3 0.9 0.4 2 0.6 3 0.1 0.6 0.4 1.3 0.4 2 0.3-0.1 0.2 0 0.2 0.1v0zM615.3 714.8h-206.6c-8 0-14.4 6.4-14.4 14.4s6.5 14.4 14.4 14.4h206.7c7.9 0 14.3-6.4 14.3-14.4s-6.4-14.4-14.4-14.4v0z" />
<glyph unicode="&#xe61a;" glyph-name="category-icon-cho-thue-o-to" data-tags="category-icon-cho-thue-o-to" d="M859.4 403c-0.6 0.6-1 1.2-1.7 1.8l-27.7 26.8c23 5.2 47.8 24.6 47.8 44.3 0 23.1-32 31.3-59.4 31.3-28.5 0-31.8-19.6-32.3-33.4l-71.6 69.2c-14.5 14.4-42.2 25.8-62.8 25.8h-279.4c-20.6 0-48.3-11.4-62.8-25.8l-71.7-69.2c-0.4 13.8-3.7 33.4-32.2 33.4-27.4 0-59.4-8.2-59.4-31.3 0-19.8 24.8-39.1 47.9-44.3l-27.8-26.8c-0.6-0.6-1-1.2-1.6-1.8-29.7-25.5-49.2-72.6-49.2-106.8v-101.6c0-24.6 9.7-47 25.5-63.7v-39.4c0-23.1 19.3-41.8 43-41.8h52c23.7 0 43 18.7 43 41.8v10.1h466v-10.1c0-23.1 19.3-41.8 43-41.8h52c23.8 0 43.1 18.7 43.1 41.8v39.4c15.7 16.7 25.5 39 25.5 63.7v101.7c-0.1 34.2-19.5 81.3-49.2 106.7v0zM335.8 512.3c10.1 8.5 27.7 14.8 36.5 14.8h279.4c8.8 0 26.4-6.3 36.5-14.8l94-91.1h-540.4l94 91.1zM147.7 311.7c0 25 19.6 45.4 43.8 45.4s103.1-46.4 103.1-71.4c0-25-78.9-19.2-103.1-19.2-24.2-0.1-43.8 20.1-43.8 45.2v0zM279 146.2h-16.7l-49.5-0.1c-13.7 4.3-23.4 9.2-30.2 14.6-3.5 2.7-6.2 5.4-8.2 8.3-2.1 2.8-3.6 5.6-4.6 8.4-6.2 17.4 6.6 33.3 6.6 33.3h84.3l56.3-64.6h-38zM633.4 146.1h-242.7c-25.3 0-45.8 20.6-45.8 45.8h334.4c-0.1-25.2-20.6-45.8-45.9-45.8v0zM644 223.2h-264c-27.5 0-49.9 33.9-49.9 75.7h363.7c0-41.8-22.3-75.7-49.8-75.7v0zM854.2 177.4c-1-2.8-2.5-5.6-4.6-8.4-2-2.9-4.7-5.6-8.2-8.4-6.8-5.3-16.5-10.4-30.2-14.6l-49.5 0.1h-54.8l56.3 64.6h84.4c0 0.1 12.7-15.9 6.6-33.3v0zM832.5 266.4c-24.2 0-103.1-5.8-103.1 19.2s78.9 71.4 103.1 71.4c24.2 0 43.8-20.3 43.8-45.4 0-25-19.6-45.2-43.8-45.2v0zM260.9 634.8c24.9-23.4 54.8-35.1 89.7-35.1 25.9 0 49.6 7.7 71 23.2 21.4 15.4 37.1 35.1 47.1 59h41.8l29.9 31.4 31.4-31.4h19.4l29.9 31.4 29.9-31.4h19.4l31.4 31.4 29.9-31.4h12v-1.5l56.8 56.8-56.8 52.3h-290.1c-28.9 37.9-63.3 56.8-103.1 56.8-34.9 0-64.8-12-89.7-35.9s-37.4-53.3-37.4-88.2c0.1-34.8 12.5-63.9 37.5-87.4v0zM283.3 751.4c7 7.5 15.7 11.2 26.2 11.2s19.2-3.7 26.2-11.2 10.5-16.2 10.5-26.2-3.5-18.7-10.5-26.2c-7-7.5-15.7-11.2-26.2-11.2s-19.2 3.7-26.2 11.2c-7 7.5-10.5 16.2-10.5 26.2s3.5 18.7 10.5 26.2v0z" />
<glyph unicode="&#xe61b;" glyph-name="category-icon-cho-thue-xe-may" data-tags="category-icon-cho-thue-xe-may" d="M691 161.4c0.7 0 1.5 0.2 2.4 0.6 3.2 1.6 14.6 7 23.2 10.2-0.2-2.6-0.4-5.2-0.4-7.8 0-53.5 43.6-97 97.1-97 53.6 0 97.1 43.5 97.1 97 0 22.9-8 43.8-21.2 60.5 10 5.5 17.4 11.7 20.6 19 3 6.9 2.2 14.4-2.3 22-20.2 34.9-57.8 56.7-98.3 56.7-1.3 0-2.6-0.2-3.9-0.3 0.6 8.1 1 22.9-3.4 31.6-4.2 8.5-15.4 10.4-27.2 12.5-5.5 1-17 3-18.7 5.5-7.3 11.2-41.4 87-49.1 111.5l22.9 2.9c3.8 0.5 6.9 3.4 7.5 7.1 1.6 9 8.9 54.8-4.8 71-3.7 4.3-8.6 6.7-14.1 6.7-18.9-0.7-79.7-23-79.7-39.3 0-1.7 0.6-4.5 2.9-11.3-1.6 1.3-3.6 2.2-5.6 2.2l-2-0.3c-13.6-3.3-25.8-7.7-26.4-7.9-4.5-1.6-6.9-6.6-5.3-11.2 1.3-3.5 4.7-5.7 8.2-5.7 1 0 2 0.2 3 0.5 0.2 0 12 4.2 24.6 7.4 3 0.8 5.1 3 6.1 5.8l0.4 0.1c1.3-3.6 2.8-8 4.7-13.1-3.8-3-6.9-4.9-6.9-4.9-4.1-2.6-5.3-8-2.7-12 1.6-2.7 4.4-4.1 7.4-4.1 1.6 0 3.2 0.4 4.6 1.4 0.2 0 1.7 1 3.8 2.5 2.6-7.1 5.5-15.1 8.9-24.5 12.1-33.1 24.6-67.2 27.4-77.5 5.1-18.5-4-125.3-51.5-139-25.7-7.4-55.7-11.4-84.5-11.4-18.2 0-35 1.6-44.8 4.4-12.3 3.5-33.3 18.7-40.8 38.3-4.8 12.6-3.4 25 4.3 37.3 10.7 17.1 19.8 27.8 26.5 35.7 6.2 7.4 10.7 12.8 13 19 1 2.7 0.5 5.6-1.1 8s-4.2 3.6-7.1 3.6h-267c-2 0-4-0.7-5.5-2-9.3-7.8-30-25.5-36.9-31.4l-35.3-0.7c-2.1-0.1-4.1-0.9-5.6-2.2l-29.1-25.8c-2.3-2.1-3.4-5.3-2.7-8.3l5.5-26.6c0.6-3 2.8-5.5 5.6-6.5l5.3-1.8c-9.7-15.5-26.9-45.6-27.6-64.9-0.1-2.4 0.5-6.1 3.8-9.4 2.4-2.4 7.5-7.6 38.4-12-0.3-3-0.5-6.2-0.5-9.3 0-58.7 47.9-106.5 106.6-106.5 53.1 0 97 39 105.1 89.7h225c40.8 0 68.4 1.6 94.3 22.4 0.2-5 1.3-12 1.9-14.7 0.3-2.2 1.9-3.7 3.9-3.7zM323.5 173.9c0-34.7-28.2-62.8-62.9-62.8s-62.9 28.1-62.9 62.8c0 1.7 0.3 3.4 0.5 5.1 29.4-1.9 79.2-4.7 125.3-5.1zM759.9 164.6c0 8 1.9 15.4 5 22.3 9.2 2.4 18.6 4.8 27.9 7.1 18.1 4.5 35.7 8.9 51.8 13.7 13.4-9.7 22.2-25.4 22.2-43 0-29.5-24-53.4-53.5-53.4-29.5-0.2-53.4 23.8-53.4 53.3zM261 617.1c24.9-23.4 54.8-35.1 89.7-35.1 25.9 0 49.6 7.7 71 23.2 21.4 15.4 37.1 35.1 47.1 59h41.8l29.9 31.4 31.4-31.4h19.4l29.9 31.4 29.9-31.4h19.4l31.4 31.4 29.9-31.4h12v-1.5l56.8 56.8-56.8 52.3h-290.1c-28.9 37.9-63.3 56.8-103.1 56.8-34.9 0-64.8-12-89.7-35.9s-37.4-53.3-37.4-88.2c0.1-34.8 12.5-63.9 37.5-87.4v0zM283.4 733.7c7 7.5 15.7 11.2 26.2 11.2s19.2-3.7 26.2-11.2c7-7.5 10.5-16.2 10.5-26.2s-3.5-18.7-10.5-26.2c-7-7.5-15.7-11.2-26.2-11.2s-19.2 3.7-26.2 11.2c-7 7.5-10.5 16.2-10.5 26.2s3.5 18.7 10.5 26.2v0z" />
<glyph unicode="&#xe61c;" glyph-name="category-icon-chuyen-nha-don-van-phong" data-tags="category-icon-chuyen-nha-don-van-phong" d="M408.8 357.9c-36.8 0-66.5-29.8-66.5-66.6 0-36.7 29.7-66.5 66.5-66.5s66.5 29.8 66.5 66.5c0 36.8-29.7 66.6-66.5 66.6v0zM408.8 258.1c-18.4 0-33.2 15-33.2 33.2 0 18.4 14.9 33.2 33.2 33.2 18.4 0 33.2-14.9 33.2-33.2 0.1-18.3-14.8-33.2-33.2-33.2v0zM910.2 407.1v-71c0-17.7-14.4-32.1-32.1-32.1h-34.3c-6.2 42.5-42.9 75.2-87.1 75.2-44.1 0-80.8-32.7-87-75.2h-173.8c-6.2 42.5-42.8 75.2-87 75.2-44.1 0-80.8-32.7-87-75.2h-43c-17.7 0-32.1 14.4-32.1 32.1v71h663.4zM756.8 357.9c-36.8 0-66.6-29.8-66.6-66.6 0-36.7 29.8-66.5 66.6-66.5 36.7 0 66.5 29.8 66.5 66.5 0 36.8-29.9 66.6-66.5 66.6v0zM756.8 258.1c-18.4 0-33.2 15-33.2 33.2 0 18.4 14.9 33.2 33.2 33.2s33.2-14.9 33.2-33.2c0-18.3-14.9-33.2-33.2-33.2v0zM897.5 478.5l-126 124.6c-8 7.9-18.8 12.4-30 12.4h-63.6v23.8c0 17.7-14.3 32.1-32.1 32.1h-367c-17.6 0-32.1-14.3-32.1-32.1v-5l-130.1-15 230.5-30-233.5-23.2 232.8-33.1-232.7-20.2 133.1-25.1v-63h663.3v23.4c0 11.5-4.6 22.4-12.6 30.4v0zM842.6 474.4h-121.9c-2.8 0-5 2.2-5 5v94.1c0 2.8 2.2 5 5 5h23.2c1.3 0 2.6-0.5 3.5-1.4l98.6-94.1c3.3-3.1 1.1-8.6-3.4-8.6v0z" />
<glyph unicode="&#xe61d;" glyph-name="category-icon-dac-san" data-tags="category-icon-dac-san" d="M904.4 437.1v0c0 69.1-175.7 125-392.4 125s-392.3-56-392.4-125v0c1.3-130.5 93.8-242.5 226.6-294.5-27.8-8.3-44.6-18.8-44.6-30.2 0-27.2 94.2-49.2 210.4-49.2s210.4 22 210.4 49.2c0 11.4-16.7 21.9-44.6 30.2 132.8 51.9 225.3 163.9 226.6 294.5v0zM512 509.8c176.8 0 284.8-35.8 324.4-61.2 8.4-5.4 8.4-17.6 0-23-39.6-25.4-147.6-61.2-324.3-61.2-176.8 0-284.7 35.8-324.3 61.2-8.4 5.4-8.4 17.6 0 23 39.4 25.4 147.4 61.2 324.2 61.2v0zM481 780.6c3.9 0.4 14.9 1.3 18.9-4.9 3.2-5 3.8-15.8-3.9-36.9-27.6-75.6-19-108.1 5.5-134.5 10-10.9 27.4-10.3 36.9 1.1l0.2 0.2 2.5 3.4c6.8 9.3 6.3 22.2-1.4 30.9-12.2 13.9-13 30.3 5.5 80.9 13.5 37.1 12.2 66.4-4.1 87.1-22.4 28.6-61.5 25.1-65.8 24.6-14.3-1.6-24.7-14.5-23.1-28.9 1.5-14.3 14.5-24.7 28.8-23v0zM357.3 730c7.8 0.5 11.1-6.6 5.1-23.1-18.6-50.8-17-78-0.7-100.4 9.6-13.3 29.2-13.8 39.4-1l1.9 2.4c6.5 8.2 7.3 19.8 1.5 28.5-5.8 8.8-4.6 20.7 7 52.5 11.1 30.3 9.7 54.5-4.1 72.1-19.1 24.3-51.9 21.4-55.5 21-14.2-1.6-24.3-14.2-22.9-28.5 1.3-14.2 13.9-24.8 28.3-23.5v0zM626 730c7.3 0.9 11.1-6.6 5.1-23.1-18.6-50.8-17-78-0.7-100.4 9.6-13.3 29.2-13.8 39.4-1l1.9 2.4c6.5 8.2 7.3 19.8 1.5 28.5-5.8 8.8-4.6 20.7 7 52.5 11.1 30.3 9.7 54.5-4 72.1-19.1 24.3-51.9 21.4-55.5 21-14.2-1.6-24.3-14.2-22.9-28.5 1.3-14.2 13.9-24.8 28.2-23.5v0z" />
<glyph unicode="&#xe61e;" glyph-name="category-icon-dai-ly-ve-may-bay" data-tags="category-icon-dai-ly-ve-may-bay" d="M780.1 775.9c-36.3-0.9-70.1 19.6-85.9 52.3-5.2 10.6-17 16.2-28.4 13.4l-126-30.5 332.9-332.9-67.6 278.5c-2.9 11.5-13.3 19.5-25 19.2v0zM896 391.3c6.4 10 5 23-3.3 31.4l-399.6 399.5c-4.9 4.8-11.3 7.4-17.7 7.4-4.7 0-9.4-1.3-13.5-4-15.3-9.9-32.8-14.7-50.3-14.7s-35 4.9-50.3 14.7c-4.2 2.7-8.9 4-13.5 4-6.4 0-12.9-2.5-17.7-7.4l-198.7-198.5c-8.4-8.4-9.8-21.4-3.3-31.3 19.7-30.5 19.7-70.1 0-100.6-6.4-9.9-5-22.9 3.3-31.3l399.6-399.5c4.8-4.8 11.3-7.4 17.7-7.4 4.7 0 9.4 1.3 13.5 4 15.3 9.9 32.8 14.7 50.3 14.7s35-4.9 50.3-14.7c4.2-2.7 8.9-4 13.5-4 6.4 0 12.9 2.5 17.7 7.4l198.5 198.5c8.4 8.4 9.7 21.5 3.3 31.4-19 29.6-19.5 67.6-1.6 97.7 0.7 1 1.3 1.8 1.8 2.7v0zM698.9 506l-150.3-67.4 41.7-41.7h74.5c2.3 0 4.3-0.9 5.9-2.4l11.1-11.1c4.2-4.2 2.8-11.3-2.6-13.6l-66.6-28.5-28.6-66.7c-2.3-5.4-9.4-6.8-13.6-2.6l-11.1 11.1c-1.6 1.6-2.4 3.7-2.4 5.9v74.5l-41.7 41.7-67.4-150.4c-2.4-5.4-9.4-6.6-13.5-2.5l-16.4 16.4c-1.8 1.8-2.7 4.3-2.4 6.9l24.6 204.7-60.8 60.7c-0.7 0.7-1.3 1.5-1.7 2.4l-18.1 39.6c-3.2 7 4 14.3 11 11l39.6-18.1c0.9-0.4 1.8-1 2.4-1.7l60.6-60.6 204.9 24.7c2.5 0.3 5.1-0.6 6.9-2.4l16.4-16.4c4.2-4.1 2.9-11.1-2.4-13.5v0z" />
<glyph unicode="&#xe61f;" glyph-name="category-icon-dao-tao-cong-nghe-thong-tin" data-tags="category-icon-dao-tao-cong-nghe-thong-tin" d="M872 790.9h-717.8c-21.3 0-38.5-17.2-38.5-38.5v-450.3c0-21.3 17.2-38.5 38.5-38.5h268.5v-87.2h-104.5c-19.6 0-35.6-16-35.6-35.6s16-35.6 35.6-35.6h389.8c19.6 0 35.6 16 35.6 35.6s-16 35.6-35.6 35.6h-104.4v87.2h268.4c21.3 0 38.5 17.2 38.5 38.5v450.3c0 21.2-17.2 38.5-38.5 38.5v0zM852.8 321.3h-679.4v411.8h679.3v-411.8zM297.7 505.5l121.5-56.5c3.1-1.4 6.5-2.2 9.9-2.2 4.5 0 8.9 1.3 12.7 3.7 6.8 4.4 10.9 11.8 10.9 19.9v0.6c0 9.1-5.4 17.5-13.7 21.4l-75.9 35.3 75.9 35.3c8.3 3.9 13.7 12.3 13.7 21.4v0.6c0 8.1-4.1 15.5-10.9 19.9-3.8 2.4-8.2 3.7-12.7 3.7-3.4 0-6.9-0.8-9.9-2.2l-121.4-56.4c-8.3-3.9-13.6-12.3-13.6-21.4v-1.7c-0.1-9.2 5.2-17.6 13.5-21.4v0zM453.8 390.5c4.4-6.1 11.5-9.7 19-9.7h0.6c10.3 0 19.3 6.6 22.5 16.4l80 247.8c2.3 7.2 1 15-3.4 21.1s-11.5 9.7-19.1 9.7h-0.6c-10.3 0-19.3-6.6-22.5-16.4l-80-247.8c-2.2-7.2-1-15.1 3.5-21.1v0zM573.5 584.4c0-9.1 5.4-17.5 13.7-21.4l75.9-35.3-75.9-35.3c-8.3-3.9-13.7-12.3-13.7-21.4v-0.6c0-8.1 4.1-15.5 10.9-19.9 3.8-2.4 8.2-3.7 12.7-3.7 3.4 0 6.8 0.7 9.9 2.2l121.4 56.5c8.3 3.9 13.6 12.3 13.6 21.4v1.7c0 9.1-5.4 17.5-13.7 21.4l-121.4 56.5c-3.1 1.4-6.5 2.2-9.9 2.2-4.5 0-8.9-1.3-12.7-3.7-6.8-4.4-10.9-11.8-10.9-19.9v-0.7z" />
<glyph unicode="&#xe620;" glyph-name="category-icon-dao-tao-ke-toan-dich-vu-ke-toan" data-tags="category-icon-dao-tao-ke-toan-dich-vu-ke-toan" d="M793.7 376.1c-14.6 32.3-90.4 61-116.6 70.2-40.6 88.9-18.7 201-18.7 201-7-31.8-16.2-44-16.2-44-7.1-57.7-54.2-105.1-54.2-105.1-0.9-15.6 1.1-28.7 4.9-39.9-72.6-117.4-132.1-55.9-161.4-8.1 5.6 13 9 28.6 8 48.1 0 0-47.1 47.4-54.2 105.1 0 0-9.1 12.2-16.3 44.2 0 0 22-111.9-18.4-200.7-31.3-13.4-62.8-22.9-62.8-22.9-34-13.1-48.3-32.6-48.3-32.6-50.3-74.5-56.2-240.3-56.2-240.3 0.6-37.9 17-41.8 17-41.8 115.6-51.6 296.6-60.7 296.6-60.7 186.2-4 321.6 52.8 321.6 52.8 19.7 12.5 20.2 22.2 20.2 22.2 13.7 118.7-45 252.5-45 252.5v0zM572.8 183.5h-121.6v46.2h121.6v-46.2zM593.9 719.8c1.9-7.5 14-45.6 54-62.8 0 0 1.6 15.7 5.9 17.1 0 0 4.9-2.4 6.5-8.3 0 0 10.5 100.2-35.2 137.7l0.3 0.5c-95.1 84.2-203 20.2-203 20.2-79-50.9-56.9-160.8-56.9-160.8 148.5-14 226 54.4 228.4 56.4v0z" />
<glyph unicode="&#xe621;" glyph-name="category-icon-dao-tao-ngoai-ngu" data-tags="category-icon-dao-tao-ngoai-ngu" d="M875.7 270.4c-0.9 0.7-2 1.1-2.9 1.7-1.1 1.1-2 2.3-3.2 3.3l-55.9 45.3c60.2 44.5 96.4 102.7 96.4 167.5 0 142.8-174.8 254.6-398.1 254.6-223.2 0-398.2-111.9-398.2-254.6 0-75.1 49.5-144.3 136.7-192.4l-56-137.5 34.1-3.4c10.6-1.1 20.7-1.5 30.5-1.5 91.5 0 152.1 43.1 188.5 83.5 21.2-2.3 42.8-3.4 64.4-3.4 58.4 0 113.3 7.9 162.8 21.7l107.6-87.3c1.2-1 2.6-1.9 4-2.7 0.8-0.6 1.2-1.5 2.1-2.1 6.2-5.1 14.3-7 22.8-6.2 1.1-0.1 2.1-0.3 3.2-0.3 14.8 0 29.6 6.5 39.6 18.8l22.8 28.2c10.9 13.3 13.7 30.7 9.4 46.1-1 8.3-4.4 15.7-10.6 20.7v0zM512.1 284.6c-24.1 0-48.3 1.5-71.7 4.4l-13.9 1.7-9-10.9c-39-47.6-89-72.9-148.9-75.3l47.1 115.8-21.7 10.4c-82 39.4-129 96.8-129 157.4 0 110.4 159 203.5 347.2 203.5 188 0 347-93.1 347-203.5 0-50.5-33.4-97.3-87.6-133.2l-213 172.8c-2.3 2.4-4.8 4.6-7.9 6.5l-1.5 1.2-0.3-0.3c-2.5 1.3-5.1 2.5-8 3.5l-127.9 41.7c-5.7 1.9-10.6 2.7-14.8 2.7-15.2 0-19.3-12-8.2-31.2l67.1-116.7c1.5-2.6 3.4-4.9 5.1-7l-0.1-0.3 0.9-0.7c2.7-3.1 5.8-5.6 9.2-7.5l41-33.4 111.1-90c-35.4-7.4-73.1-11.6-112.2-11.6v0zM514.9 430.5l7.1 8.8 158.1-128.3c-6.1-2-12.4-3.9-18.7-5.7l-150 121.7c1.1 1.1 2.3 2.2 3.5 3.5v0zM505.6 481.6l-26.8-33-59 102.6 112.5-36.6-26.7-33zM725 253.7l-15.5 12.6c6 2.1 11.8 4.3 17.5 6.6l8.2-6.6-10.2-12.6zM814.5 254.3l-22.8-28.2c-5.8-7.2-9.8-15.2-12.1-23.1l-37.9 30.8 55 67.7 37.9-30.7c-7.2-3.8-14.2-9.3-20.1-16.5v0z" />
<glyph unicode="&#xe622;" glyph-name="category-icon-dat-du-an-can-ho" data-tags="category-icon-dat-du-an-can-ho" d="M807.7 605.8c1.5 4.9 0.9 12.5-10.7 20.5l-307.1 212.7c-7 4.8-16.1 7.5-25.6 7.5-9.6 0-18.7-2.7-25.6-7.5l-117.5-81.4v32.9c0 9.4-7.6 17-17 17h-66.9c-9.4 0-17.1-7.6-17.1-17v-94.1c0-2.7 1.1-7.8-3.4-11.2l-85.2-59c-11.6-8.1-12.2-15.6-10.7-20.5s6.3-10.8 20.5-10.8h34.5c8.3 0 15.1-6.8 15.1-15.2v-337.1c0-18.8 15.3-34.1 34.1-34.1h478.4c18.8 0 34.1 15.3 34.1 34.1v337.3c0 8.3 6.8 15.2 15.1 15.2h34.5c14.2-0.1 19 5.8 20.5 10.7v0zM334.9 394.4c0-4.2-3.4-7.6-7.6-7.6h-74.6c-4.2 0-7.6 3.4-7.6 7.6v65.4c0 4.2 3.4 7.6 7.6 7.6h74.6c4.2 0 7.6-3.4 7.6-7.6v-65.4zM334.9 496.5c0-4.2-3.4-7.6-7.6-7.6h-74.6c-4.2 0-7.6 3.4-7.6 7.6v60.5c0 4.2 3.4 7.6 7.6 7.6h74.6c4.2 0 7.6-3.4 7.6-7.6v-60.5zM446.1 394.4c0-4.2-3.4-7.6-7.6-7.6h-74.6c-4.2 0-7.6 3.4-7.6 7.6v65.4c0 4.2 3.4 7.6 7.6 7.6h74.6c4.2 0 7.6-3.4 7.6-7.6v-65.4zM446.1 496.5c0-4.2-3.4-7.6-7.6-7.6h-74.6c-4.2 0-7.6 3.4-7.6 7.6v60.5c0 4.2 3.4 7.6 7.6 7.6h74.6c4.2 0 7.6-3.4 7.6-7.6v-60.5zM642.5 238.2c0-4.2-3.4-7.6-7.6-7.6h-111.4c-4.2 0-7.6 3.4-7.6 7.6v177.4c0 4.2 3.4 7.6 7.6 7.6h111.4c4.2 0 7.6-3.4 7.6-7.6v-177.4zM820.6 308.9c-6.1-4-7.9-12.2-3.9-18.3l14.8-22.7c3.5-5.4 9.2-8.6 15.2-8.6h0.1c6 0 11.7 3.4 15.2 8.9l14.4 23c3.9 6.2 2 14.4-4.2 18.3-4 2.5-8.8 2.6-12.8 0.7l-1.7 127.9c3.9-1.7 8.6-1.4 12.4 1.1 6.1 4 7.9 12.2 3.9 18.3l-14.8 22.7c-3.5 5.4-9.2 8.6-15.2 8.6 0 0-0.1 0-0.1 0-6 0-11.7-3.4-15.2-8.9l-14.4-22.9c-3.9-6.2-2-14.4 4.2-18.3 2.2-1.4 4.6-2 7-2 2 0 3.9 0.5 5.7 1.3l1.8-128c-4 1.6-8.6 1.4-12.4-1.1v0zM800.3 516.9h0.1l87.1 0.7c7.3 0.1 13.2 6 13.1 13.4-0.1 7.3-6 13.1-13.3 13.1h-0.1l-87.1-0.7c-7.3-0.1-13.2-6-13.1-13.4 0.1-7.2 6-13.1 13.3-13.1v0zM890.5 231h-0.1l-87.1-0.7c-7.3-0.1-13.2-6-13.1-13.4 0.1-7.3 6-13.1 13.2-13.1h0.1l87.1 0.7c7.3 0.1 13.2 6 13.1 13.4 0 7.2-5.9 13.1-13.2 13.1v0zM685.3 124.5l-23 14.4c-6.2 3.9-14.4 2-18.3-4.2-2.5-3.9-2.6-8.6-0.9-12.5l-351-2.1c1.8 4 1.6 8.7-1 12.6-4 6.1-12.2 7.9-18.3 3.9l-22.7-14.8c-5.4-3.6-8.7-9.3-8.6-15.3 0-6 3.4-11.7 8.9-15.2l23-14.4c2.2-1.4 4.6-2 7-2 4.4 0 8.7 2.2 11.2 6.2 2.5 3.9 2.6 8.6 0.9 12.5l351 2.1c-1.8-4-1.5-8.7 1-12.6s6.8-6 11.1-6c2.5 0 5 0.7 7.2 2.2l22.7 14.8c5.4 3.5 8.7 9.3 8.6 15.3 0 6-3.3 11.7-8.8 15.1v0zM735.7 166.4h-0.1c-7.3-0.1-13.2-6-13.1-13.4l0.7-87.1c0.1-7.3 6-13.1 13.2-13.1h0.1c7.3 0.1 13.2 6 13.1 13.4l-0.7 87.1c0 7.2-6 13.1-13.2 13.1v0zM199.4 163.2h-0.1c-7.3-0.1-13.2-6-13.1-13.4l0.7-87.1c0.1-7.3 6-13.1 13.3-13.1h0.1c7.3 0.1 13.2 6 13.1 13.4l-0.7 87.1c-0.1 7.2-6 13.1-13.3 13.1v0z" />
<glyph unicode="&#xe623;" glyph-name="category-icon-dau-hd-tv-box-dvd" data-tags="category-icon-dau-hd-tv-box-dvd" d="M150.1 373.1h87.4v-37.4h-87.4v37.4zM774.1 373.1h87.4v-37.4h-87.4v37.4zM886.4 560.3h-748.8c-13.8 0-25-11.2-25-25v-124.8c0-13.8 11.2-24.9 25-24.9h748.8c13.8 0 24.9 11.2 24.9 24.9v124.8c0.1 13.9-11.1 25-24.9 25v0zM499.5 472.9h-337v37.5h337v-37.5zM649.3 450.4v57.6l50-28.8-50-28.8zM786.6 448h-24.9v62.4h24.9v-62.4zM824 448h-25v62.4h25v-62.4z" />
<glyph unicode="&#xe624;" glyph-name="category-icon-dich-thuat-bien-dich-phien-dich" data-tags="category-icon-dich-thuat-bien-dich-phien-dich" d="M413 417.2v32.6c-18.1 12.2-35.3 26.9-51.3 44.6-45.8-44.4-89.7-72.6-94.5-75.5l-4.2-2.7-25.2 40.4 3.9 2.4c0.5 0.5 45.4 28.9 90.5 73-41.4 60.5-57.3 121.3-58.1 124l-1.3 4.6 46.4 11.8 1.2-4.7c0-0.5 13.2-49.2 45.1-99.5 31.6 38.5 50.3 75.5 54.9 110.5h-194.2v51.9h106.8v28.7h50v-28.7h106.8v-51.6h-21.5c-4.9-48.5-29.7-98.8-73.3-149.8 5.8-6.6 11.7-12.5 17.9-18.4v24.5c0 17.1 14.2 31.4 31.4 31.4h139.7v246.8c0 4.4-3.4 7.8-7.8 7.8h-451.2c-4.4 0-7.8-3.5-7.8-7.8v-451.2c0-4.4 3.5-7.8 7.8-7.8h288v62.7zM670.8 403.5h-0.9c-4.2-17.1-8.6-39-13.2-55.6l-17.2-61.3h63.7l-17.9 61.3c-5.2 17.1-10.3 38.5-14.5 55.6v0zM899 541.5h-451c-4.4 0-7.8-3.7-7.8-7.8v-451.2c0-4.4 3.5-7.8 7.8-7.8h451c4.4 0 7.8 3.5 7.8 7.8v451.2c0 4.1-3.4 7.8-7.8 7.8v0zM735 163.8l-22.3 74h-82.6l-20.6-74h-67.6l88.2 288.5h85.5l89.5-288.5h-70.1zM320.3 334.9h-62.7v-104.4l51.9-51.3h116.5v62.5h-105.7v93.2z" />
<glyph unicode="&#xe625;" glyph-name="category-icon-dich-vu-khac" data-tags="category-icon-dich-vu-khac" d="M483.9 401.7h65.2l-5.4-25.9h-102.3c2.6 10.7 7 20.5 13.1 29.5 6.4 9.9 18.5 20.4 36.4 31.6 15.5 9.7 25.8 16.6 30.6 20.7 7.5 6.6 12 13.7 13.7 21.5 1.4 6.4 0.8 11.7-1.8 15.8-2.6 4.2-7.2 6.2-13.8 6.2-8.8 0-15.7-3.3-20.4-9.9-2.6-3.9-4.9-10-7.1-18.4h-28.5c3.2 12.7 7.5 23 13.5 30.8 11 15 26.4 22.4 46.4 22.4 15.8 0 27.5-4.4 34.9-13.1 7.5-8.8 9.7-20.4 6.6-34.9-2.4-11-7.7-20.8-16.1-29.4-5.6-5.8-14-12.1-25.5-19.1l-13.4-8.4c-8.5-5.2-14.4-9-17.6-11.3-3-2.3-6-5.1-8.5-8.1v0zM564.6 407.9l5.4 25.7 74.2 90.6h32.9l-19.9-93.3h17l-4.8-23h-16.9l-6.8-32.2h-28.8l6.8 32.2h-59.1zM591.2 430.9h37.4l13.7 64.5-51.1-64.5zM606.5 159.3h0.2v-50.3c0-29.4-24-53.4-53.4-53.4h-352.4c-29.4 0-53.4 24-53.4 53.4v683.7c0 29.3 24 53.4 53.4 53.4h352.5c29.4 0 53.4-24 53.4-53.4l-0.4-47.4c150.9-12.5 270.1-138.9 270.1-293 0-154-119.2-280.5-270-293v0zM314.2 801.2c0-3.6 3-6.5 6.5-6.5h112.8c3.6 0 6.5 2.8 6.5 6.5 0 3.5-2.9 6.5-6.5 6.5h-112.8c-3.5 0-6.5-3-6.5-6.5v0zM403.8 108.9c0 14.7-12 26.6-26.8 26.6-14.6 0-26.6-11.9-26.6-26.6 0-14.8 12-26.8 26.6-26.8 14.8 0.1 26.8 12.1 26.8 26.8v0zM804.2 452.3c0 122.3-99.6 221.8-221.8 221.8-4.7 0-8.8-0.5-13.4-0.7v72.3c0.1 0-0.2 0 0 0.1v15.6h-384.4v-607.1h384.9v4.3l-0.1 0.1c-156.3 6.7-281.3 135.6-281.3 293.6 0 1.7 0.1 3.3 0.2 4.9h-44.4l79.1 79.1 79.1-79.1h-41.4c-0.1-1.6-0.2-3.3-0.2-4.9 0-122.3 99.4-221.9 221.8-221.9 122.3 0 221.9 99.6 221.9 221.9v0z" />
<glyph unicode="&#xe626;" glyph-name="category-icon-dich-vu-khach-san-nha-hang" data-tags="category-icon-dich-vu-khach-san-nha-hang" d="M770.2 711.8h-412.6c-17.1 0-30.2-13.7-30.2-30.8v-324.6l-104.6-115.6v-155.2c0-17.1 13.1-31 30.2-31h268.8v170c0 5.2 3.8 10 9 10h66.2c5.2 0 8.9-4.8 8.9-10v-170h164.3c17 0 31.5 14 31.5 31v595.4c0 17.1-14.5 30.8-31.5 30.8v0zM486 152.5c0-5.1-4.2-9.3-9.3-9.3h-67c-5.2 0-9.3 4.2-9.3 9.3v67c0 5.2 4.2 9.4 9.3 9.4h67c5.1 0 9.3-4.2 9.3-9.4v-67zM486 274c0-5.2-4.2-9.4-9.3-9.4h-67c-5.2 0-9.3 4.2-9.3 9.4v66.9c0 5.2 4.2 9.4 9.3 9.4h67c5.1 0 9.3-4.2 9.3-9.4v-66.9zM486 396.8c0-5.1-4.2-9.3-9.3-9.3h-67c-5.2 0-9.3 4.2-9.3 9.3v67c0 5.1 4.2 9.3 9.3 9.3h67c5.1 0 9.3-4.2 9.3-9.3v-67zM486 518.3c0-5.2-4.2-9.4-9.3-9.4h-67c-5.2 0-9.3 4.2-9.3 9.4v66.9c0 5.2 4.2 9.4 9.3 9.4h67c5.1 0 9.3-4.2 9.3-9.4v-66.9zM607.4 274c0-5.2-4.2-9.4-9.4-9.4h-66.9c-5.2 0-9.4 4.2-9.4 9.4v66.9c0 5.2 4.2 9.4 9.4 9.4h66.9c5.2 0 9.4-4.2 9.4-9.4v-66.9zM607.4 396.8c0-5.1-4.2-9.3-9.4-9.3h-66.9c-5.2 0-9.4 4.2-9.4 9.3v67c0 5.1 4.2 9.3 9.4 9.3h66.9c5.2 0 9.4-4.2 9.4-9.3v-67zM607.4 518.3c0-5.2-4.2-9.4-9.4-9.4h-66.9c-5.2 0-9.4 4.2-9.4 9.4v66.9c0 5.2 4.2 9.4 9.4 9.4h66.9c5.2 0 9.4-4.2 9.4-9.4v-66.9zM728.8 152.5c0-5.1-4.1-9.3-9.3-9.3h-67c-5.1 0-9.3 4.2-9.3 9.3v67c0 5.2 4.2 9.4 9.3 9.4h67c5.2 0 9.3-4.2 9.3-9.4v-67zM728.8 274c0-5.2-4.1-9.4-9.3-9.4h-67c-5.1 0-9.3 4.2-9.3 9.4v66.9c0 5.2 4.2 9.4 9.3 9.4h67c5.2 0 9.3-4.2 9.3-9.4v-66.9zM728.8 396.8c0-5.1-4.1-9.3-9.3-9.3h-67c-5.1 0-9.3 4.2-9.3 9.3v67c0 5.1 4.2 9.3 9.3 9.3h67c5.2 0 9.3-4.2 9.3-9.3v-67zM728.8 518.3c0-5.2-4.1-9.4-9.3-9.4h-67c-5.1 0-9.3 4.2-9.3 9.4v66.9c0 5.2 4.2 9.4 9.3 9.4h67c5.2 0 9.3-4.2 9.3-9.4v-66.9zM423.1 751l24.3-17.5c2.5-1.8 5.8-1.8 8.3 0.1 2.5 1.8 3.4 5 2.5 7.8l-9.3 28.4c-1 2.9 0 6.1 2.5 7.9l24 17.7c2.5 1.8 3.5 5 2.5 7.8-0.9 2.9-3.6 4.9-6.7 4.9l-29.9-0.2c-3 0-5.7 1.9-6.7 4.8l-9.3 28.5c-1 2.9-3.7 4.8-6.7 4.8s-5.7-2-6.6-4.9l-9.1-28.5c-0.9-2.9-3.6-4.9-6.7-4.9l-29.9-0.2c-3 0-5.7-1.9-6.6-4.9-0.9-2.9 0.2-6 2.6-7.8l24.3-17.5c2.5-1.8 3.5-4.9 2.6-7.8l-9.1-28.5c-0.9-2.9 0.1-6.1 2.6-7.9 2.4-1.8 5.8-1.8 8.2 0.1l24.1 17.7c2.3 1.9 5.7 1.9 8.1 0.1v0zM570.5 751l24.3-17.5c2.5-1.8 5.9-1.8 8.3 0.1 2.4 1.8 3.4 5 2.5 7.8l-9.4 28.4c-1 2.9 0.1 6.1 2.5 7.9l24.1 17.7c2.4 1.8 3.4 5 2.4 7.8-0.9 2.9-3.6 4.9-6.6 4.9l-30-0.2c-3 0-5.7 1.9-6.6 4.8l-9.4 28.4c-1 2.9-3.7 4.9-6.7 4.8-3.1 0-5.7-1.9-6.6-4.9l-9.1-28.5c-0.9-2.9-3.6-4.9-6.7-4.9l-29.9-0.2c-3 0-5.7-1.9-6.6-4.9-0.9-2.9 0.1-6 2.6-7.8l24.3-17.5c2.4-1.8 3.5-4.9 2.6-7.9l-9.1-28.4c-0.9-2.9 0.1-6.1 2.6-7.9s5.8-1.8 8.2 0.1l24.1 17.7c2.4 2 5.8 2 8.2 0.2v0zM715.3 751l24.3-17.5c2.5-1.8 5.8-1.8 8.2 0.1 2.5 1.8 3.5 5 2.5 7.8l-9.4 28.4c-0.9 2.9 0.1 6.1 2.5 7.9l24.1 17.7c2.5 1.8 3.5 5 2.5 7.8-0.9 2.9-3.7 4.9-6.7 4.9l-29.9-0.2c-3 0-5.7 1.9-6.7 4.8l-9.4 28.4c-0.9 2.9-3.6 4.9-6.7 4.8-3 0-5.7-1.9-6.6-4.9l-9.1-28.5c-0.9-2.9-3.6-4.9-6.6-4.9l-29.9-0.2c-3 0-5.7-2-6.6-5-0.9-2.9 0.1-6 2.5-7.8l24.4-17.5c2.4-1.8 3.5-4.9 2.6-7.8l-9.3-28.3c-0.9-2.9 0.2-6 2.6-7.8 2.5-1.9 5.8-1.8 8.3 0l24 17.7c2.6 1.9 5.9 1.9 8.4 0.1v0z" />
<glyph unicode="&#xe627;" glyph-name="category-icon-dich-vu-nha-dat" data-tags="category-icon-dich-vu-nha-dat" d="M796.5 403.7h-81c-10.1 0-18.3-8.2-18.3-18.3s8.2-18.3 18.3-18.3h35.8l-184.4-179.3h-402.5c-10.2 0-18.3-8.2-18.3-18.3s8.2-18.3 18.3-18.3h409.9c4.8 0 9.3 1.9 12.8 5.2l191.1 185.6v-37.5c0-10.1 8.2-18.3 18.3-18.3 10.2 0 18.3 8.2 18.3 18.3v80.9c0.1 10.1-8.1 18.3-18.3 18.3v0zM740.4 654.5c0-9.8 3-14.8 16.4-25.4v47c-11-2-16.4-10.1-16.4-21.6v0zM769.3 581.3v-53c10.6 1.7 17.2 13.2 17.2 25.2 0 13.3-5.8 21.6-17.2 27.8v0zM763.6 744.9c-82.5 0-149.6-67.1-149.6-149.5 0-82.5 67.1-149.6 149.6-149.6 82.4 0 149.5 67.1 149.5 149.6s-67.1 149.5-149.5 149.5v0zM769.3 502v-20.9c0-4.1-1.9-7.1-6.3-7.1-4.3 0-6.2 3-6.2 7.1v20.9c-28.7 0-49.5 21.1-49.5 48.7 0 9.9 4.7 18.6 15 18.6 9.5 0 14.7-5.4 16.1-18.1 1.3-13.4 6.8-21.8 18.3-23v59.6l-17.5 11.2c-19.6 12.5-30.1 29-30.1 51.9 0 28.6 17.5 50.5 47.6 51.4v7.1c0 4.4 1.9 7.4 6.2 7.4 4.4 0 6.3-3 6.3-7.4v-7.1c24.8 0 45.3-16.4 45.3-41.3 0-8.8-6-15.9-15-15.9-11.8 0-14.3 7.1-16.1 16.1-2.2 10.4-8.2 14.8-14.2 14.8v-53.8l15.9-9.3c20.8-12 34.6-27.5 34.6-53.2 0.1-35-18.2-56-50.4-57.7v0zM367.6 615.6l211.3-181.6c5.2-4.5 11.6-6.7 17.9-6.7 7.7 0 15.4 3.3 20.9 9.6 9.9 11.5 8.6 28.9-2.9 38.8l-229.3 197c-10.3 8.9-25.6 8.9-35.9 0l-229.1-197c-11.5-9.9-12.8-27.3-2.9-38.8s27.3-12.8 38.8-2.9l211.2 181.6zM361.6 587.8l-172.7-149c-2-1.7-3.2-4.3-3.2-6.9v-215.5c0-5 4.1-9.2 9.2-9.2h345.4c5.1 0 9.2 4.1 9.2 9.2v215.5c0 2.7-1.2 5.2-3.2 6.9l-172.7 149c-3.4 3-8.5 3-12 0v0zM350.8 268.7c0-7.6-6.2-13.7-13.7-13.7h-53.5c-7.6 0-13.8 6.2-13.8 13.7v53.5c0 7.6 6.2 13.7 13.8 13.7h53.5c7.6 0 13.7-6.2 13.7-13.7v-53.5zM350.8 383.3c0-7.6-6.2-13.7-13.7-13.7h-53.5c-7.6 0-13.8 6.2-13.8 13.7v53.6c0 7.6 6.2 13.8 13.8 13.8h53.5c7.6 0 13.7-6.2 13.7-13.8v-53.6zM384.4 436.9c0 7.6 6.2 13.8 13.7 13.8h53.5c7.6 0 13.8-6.2 13.8-13.8v-53.6c0-7.6-6.2-13.7-13.8-13.7h-53.5c-7.6 0-13.7 6.2-13.7 13.7v53.6zM384.4 322.3c0 7.6 6.2 13.7 13.7 13.7h53.5c7.6 0 13.8-6.2 13.8-13.7v-53.5c0-7.6-6.2-13.7-13.8-13.7h-53.5c-7.6 0-13.7 6.2-13.7 13.7v53.5z" />
<glyph unicode="&#xe628;" glyph-name="category-icon-dich-vu-o-to" data-tags="category-icon-dich-vu-o-to" d="M775.2 693.6c-8.3 0-15.5-7.3-15.5-15.5v-19.6c0-8.3 7.3-15.5 15.5-15.5h10.3l-190.2-191.5-4 14.6c-4 13.6-14.6 30-43.4 26.9l-111.7-5.2-75.7 70.5c-9.3 9.3-25.8 20.6-49.7 14.6l-197.6-53.1v-35.2h1l80.7 21.8 21.8-77.6-103.5-27.9v-164.5c11.3-25.8 40.4-39.4 67.3-32.1 28.9 8.3 46.5 36.2 41.5 66.2l199.7 53.7c9.3-27.9 40.4-44.5 69.4-36.2 28.9 8.3 46.5 36.2 41.5 66.2l57 15.5c13.6 4 23.9 13.6 19.6 30l-5.2 19.6 224.5 224.3h32.1v-134.5h50.7v184.5h-136.1zM173.1 229.1c-16.6-5.2-34.2 5.2-38.2 21.8s5.2 33.1 21.8 37.2c3 2.1 5.2 2.1 7.3 2.1 14.6 1 27.9-8.3 31.2-22.8 3.8-16.5-5.6-33.1-22.1-38.3v0zM250.8 439.3l-20.6 78.6 74.4 19.6h11.3c10.3-1 19.6-6.3 25.8-12.4l49.7-48.8-140.6-37zM483.5 314c-16.6-4-34.2 5.2-38.2 21.8s6.3 33.1 22.8 38.2c2.1-1 4-1 6.3 0 14.6 1 27.9-8.3 31.2-22.8 3.8-16.5-5.5-33-22.1-37.2v0zM726.6 458.8v-166.5c0-15.5 4-27.9 28.9-27.9h35.2c2.1-34.2 31.2-62.1 66.2-62.1 22.8 0 42.5 11.3 53.7 28.9v254.5c1 1-155.3 1-155.3 1-25.6 0-28.7-11.3-28.7-27.9v0zM856.9 305.7c19.6 0 35.2-15.5 35.2-35.2 0-19.6-15.5-36.2-35.2-36.2s-36.2 16.6-36.2 36.2c1.2 18.6 16.7 35.2 36.2 35.2v0z" />
<glyph unicode="&#xe629;" glyph-name="category-icon-dich-vu-sua-chua" data-tags="category-icon-dich-vu-sua-chua" d="M703.6 236l-196.4 104.1c5.9-14.8 20.8-25.2 39-37.9 8.6-6 17.6-12.2 26.7-19.7 8.6-7 19.9-17.8 17.8-30.4-2.3-14.4-19.6-21-37.9-28.1-21-8.1-98.6-30.6-132.7-39.9l-13-3.6c-32.7-9-73.3-20.3-111.8-24.8-22.9-2.7-48.2-17.8-68.5-30.1-17.6-10.6-46.5-22.2-49.3-22.2h-3.5c-6.1 0-13.8 0.4-21.7 2.1l-32.7-54.5 584 185zM894.7 815.2c-22.4 31.7-66.3 39.2-98 16.7l-200-141.7c-28.8-20.4-37.3-58.4-21.9-88.9l-54.6-38.8c-4.2-3-6.8-7.9-6.8-13.1v-159l-23.4-21.6c7.1-4.6 12.8-11.3 15.2-22.6 0.4-1.9 1-3.7 1.7-5.5l33.5 30.7c3.3 3 5.2 7.3 5.2 11.8v157.9l49 34.8c23.9-20.1 59.1-22.6 85.7-3.7l200 141.7c31.7 22.5 39.2 66.3 16.7 98l-2.3 3.3zM314.9 403.2c-18.4-10.5-33.5-35.3-33.5-50.6 0-2.3-0.5-4.5-1-6.8-2-9.9-7.8-18.6-15.5-25.9-10.9-10.4-25-18.1-35.4-22.9-64.5-29.4-94.9-55.9-108.5-94.6-4.8-18.1-10.4-53.9-4.3-65.2 5.9-10.9 16.1-15.5 28.4-17.1 4.1-0.5 8.4-0.7 12.9-0.7h3.6c3.1 0 14.4 4 14.4 4s16.3 8.1 29.3 15.9c21.6 13 47.2 29.2 73.6 32.3 37.2 4.3 76.5 15.4 108.7 24.3l12.7 3.6c34.5 9.4 111.1 31.8 129.6 38.9 12.1 4.6 28.2 10.9 29.1 16.1 0.1 0.8 0.1 5.4-12.2 15.4-8.7 7.1-17.4 13.1-25.8 18.9-22.7 15.8-42.3 29.4-47.5 53.9-1.6 7.4-5.5 11.3-12 14.5-3.3 1.6-7.2 3.2-12.1 4.9-0.3 0.1-0.6 0.2-0.9 0.3-11.5 3.9-25.6 8.9-38.8 20.7-0.7 0.6-1.4 1-2.1 1.7-13.9 13.4-30.5 21.7-47.7 24.7-4.3 0.7-8.7 1.4-13.1 1.4-9.9 0-19.6-2-27.9-5.6-1.5-0.5-2.7-1.4-4-2.1v0z" />
<glyph unicode="&#xe62a;" glyph-name="category-icon-dich-vu-tong-dai-ten-mien-may-chu" data-tags="category-icon-dich-vu-tong-dai-ten-mien-may-chu" d="M871.6 155.3v-105.4h-719.2v105.5c0 49.8 42.9 111.2 95.5 136l116.6 55.6 81.1-169 41.6 112.5c8.1-1.5 16.3-3.5 24.9-3.5 8.5 0 16.6 2.1 24.8 3.5l39.4-106.9 79.5 165.2 120.4-57.4c52.3-24.8 95.4-86.1 95.4-136.1v0zM258.5 525.2v76.1c0 13 6.7 24.3 16.8 30.8 13.6 118.6 114.5 211 236.7 211s223-92.4 236.7-211c10.1-6.5 16.8-17.8 16.8-30.8v-76.1c0-20.3-16.4-36.8-36.6-36.8-20.3 0-36.6 16.5-36.6 36.8v15.9c-19.9-99.7-92.8-192.3-180.3-192.3-87.4 0-160.4 92.6-180.2 192.3v-15.9c0-16.5-11-30.2-25.9-34.9 14.7-49.6 47-92.5 91.7-120.7 8.2 2.8 18.7 2.3 28.7-3 16.2-8.5 24.5-24.8 18.3-36.6-6.1-11.7-24.2-14.3-40.5-5.8-11.9 6.2-19.5 16.6-20.3 26.5-51.2 32.6-87.5 82.8-102.5 140.6-13.3 5.3-22.8 18.5-22.8 33.9v0zM300.3 640.7c1.1-0.1 2.2-0.1 3.2-0.6 2.6-0.9 4.6-2.8 6-5 7.9-3.5 14.2-9.6 18.1-17.3 10.9 101.3 89.2 155 184.4 155s173.5-53.7 184.3-155c5.4 10.5 15.6 18.1 27.8 19.7-15.9 103-104.9 182.1-212.1 182.1-106.2 0.1-194.5-77.4-211.7-178.9v0z" />
<glyph unicode="&#xe62b;" glyph-name="category-icon-dich-vu-xe-may" data-tags="category-icon-dich-vu-xe-may" d="M905 491.9c-1.3 11.1-14.2 19.5-25.4 19.5-36.2 0-68.4 21.3-81.9 54.2-13.8 33.7-4.9 73 22.1 97.8 8.5 7.8 9.5 20.8 2.4 29.8-18.6 23.6-39.6 44.8-62.7 63.3-9 7.2-22.2 6.2-30.1-2.4-23.6-26.1-65.9-35.8-98.6-22.2-34 14.3-55.5 48.8-53.4 85.9 0.7 11.6-7.8 21.7-19.4 23.1-29.5 3.4-59.4 3.5-89 0.2-11.4-1.3-19.9-11.1-19.6-22.6 1.3-36.7-20.4-70.6-54.2-84.4-32.3-13.2-74.4-3.6-97.9 22.3-7.8 8.5-20.8 9.6-29.9 2.5-23.7-18.6-45.2-39.9-64-63.3-7.3-9.1-6.2-22.2 2.4-30 27.5-24.9 36.4-64.6 22.1-98.7-13.6-32.5-47.4-53.5-86.1-53.5-12.5 0.4-21.5-8-22.9-19.4-3.5-29.7-3.5-60-0.2-89.9 1.3-11.2 14.6-19.5 25.9-19.5 34.4 0.9 67.5-20.4 81.4-54.2 13.8-33.7 4.9-73-22.1-97.8-8.5-7.8-9.5-20.8-2.4-29.8 18.4-23.4 39.5-44.7 62.6-63.3 9.1-7.3 22.2-6.3 30.1 2.4 23.7 26.2 66 35.8 98.6 22.2 34.1-14.3 55.6-48.8 53.5-85.8-0.7-11.6 7.8-21.8 19.4-23.1 15.1-1.8 30.3-2.6 45.6-2.6 14.5 0 28.9 0.8 43.4 2.4 11.5 1.3 19.9 11.2 19.6 22.6-1.3 36.7 20.5 70.6 54.1 84.4 32.5 13.3 74.4 3.6 97.9-22.3 7.8-8.5 20.7-9.5 29.8-2.5 23.7 18.6 45.2 39.8 64 63.3 7.3 9.1 6.3 22.2-2.4 30.1-27.5 24.9-36.4 64.6-22.2 98.6 13.4 32.1 45.9 53.6 80.9 53.6l4.9-0.1c11.3-0.9 21.8 7.8 23.2 19.4 3.8 29.6 3.9 59.8 0.5 89.8v0zM512 220c-125.9 0-228 102.1-228 228s102.1 228 228 228 228-102.1 228-228c0-42.7-11.8-82.7-32.3-116.9l-99.8 99.9c7.2 17 11.1 35.5 11.1 54.6 0 37.3-14.6 72.4-41 98.8s-61.5 40.9-98.8 40.9c-12.5 0-24.9-1.7-36.8-4.9-5.3-1.4-9.6-5.8-11-11-1.4-5.4 0.2-10.9 4.4-15.1 0 0 49.3-49.7 65.8-66.2 1.7-1.7 1.7-5.8 1.5-7.3l-0.2-1.1c-1.7-18.1-4.9-39.9-7.5-48.3-0.4-0.4-0.7-0.7-1.1-1-0.4-0.4-0.7-0.7-1.1-1.1-8.5-2.7-30.6-6-49-7.6v0.1l-0.8-0.2c-0.1 0-0.4 0-0.8 0-2 0-4.9 0.6-7.6 3.2-17.2 17.2-64.5 64.2-64.5 64.2-4.2 4.2-8.6 5.1-11.5 5.1-6.8 0-12.8-4.9-14.7-11.9-13-48.2 0.8-100.1 36.1-135.4 26.4-26.4 61.5-40.9 98.8-40.9 19.1 0 37.6 3.8 54.6 11l100.9-100.9c-35.4-22.8-77.5-36-122.7-36v0z" />
<glyph unicode="&#xe62c;" glyph-name="category-icon-dien-may-khac" data-tags="category-icon-dien-may-khac" d="M888.6 493.6h-12.5v55.1h6.4c8.8 0 15.9 13.9 15.9 31v72.7c0 17.2-7.1 31-15.9 31h-6.4v8.1c0 22.9-18.5 41.3-41.3 41.3h-611.2c-22.8 0-41.3-18.5-41.3-41.3v-123.9l7.7-52.1c3.4-22.6 24.6-40.8 47.4-40.8h38.1v-63.3h-7.1c-1.1 3-2.9 5-5.1 5-3.3 0-6-4.5-6-10.1s2.7-10.2 6-10.2c2.2 0 4 2.1 5.1 5h7.1v-29.2h16.2v9.9h15.6c1.1-2.9 2.9-5 5.1-5 3.3 0 6.1 4.5 6.1 10.1s-2.8 10.2-6.1 10.2c-2.2 0-4-2.1-5.1-5h-15.6v54.7h9.8c1.1-2.5 2.8-4.3 4.8-4.3 3.3 0 6 4.5 6 10.2 0 5.5-2.7 10-6 10-2.4 0-4.3-2.3-5.3-5.6h-9.3v17.7h25c22.8 0 41.1 19 48.7 40.5 4.2 11.6 9.6 21.2 14.9 28.9 10.4 14.8 41 23.6 63.8 23.6h125.7c22.8 0 41.3-18.5 41.3-41.3v-163.6c0-22.8-18.5-41.3-41.3-41.3h-415c-22.9 0-41.3-18.5-41.3-41.3v-75.8c0-22.8 18.5-41.3 41.3-41.3h680c22.8 0 41.3 18.5 41.3 41.3v192.5h12.5c12.1 0 21.9 13.9 21.9 31v34.6c0 17.2-9.8 31-21.9 31v0zM747.9 693.7h83.5c5.7 0 10.3-4.6 10.3-10.3s-4.6-10.3-10.3-10.3h-83.5c-5.7 0-10.3 4.6-10.3 10.3-0.1 5.7 4.6 10.3 10.3 10.3v0zM747.9 657.2h83.5c5.7 0 10.3-4.6 10.3-10.3s-4.6-10.3-10.3-10.3h-83.5c-5.7 0-10.3 4.6-10.3 10.3-0.1 5.7 4.6 10.3 10.3 10.3v0zM689.8 683.5c-11.7-12.7-35-22.9-52.1-22.9h-286.7c-5.7 0-10.3 4.6-10.3 10.3v25c0 5.7 4.6 10.4 10.3 10.4h328.8c17.1 0 21.6-10.3 10-22.8v0zM857.2 386.9c0-11.4-9.2-20.7-20.6-20.7h-104.2c-11.4 0-20.6 9.3-20.6 20.7v131.7c0 11.4 9.2 20.7 20.6 20.7h104.2c11.4 0 20.6-9.3 20.6-20.7v-131.7z" />
<glyph unicode="&#xe62d;" glyph-name="category-icon-diet-con-trung-diet-moi" data-tags="category-icon-diet-con-trung-diet-moi" d="M628.3 690.4c0.3 1.6 0.5 3.3 0.5 5 0 13.9-11.3 25.2-25.2 25.2h-27v89.3c0 6-4.8 10.8-10.8 10.8h-97.2c-6 0-10.8-4.8-10.8-10.8v-15.1h21.6v-30.8h-21.6v-43.4h-27c-13.9 0-25.2-11.3-25.2-25.2 0-1.7 0.2-3.4 0.5-5-16.7-1.3-29.9-15.2-29.9-32.3v-573.6c0-17.9 14.5-32.4 32.4-32.4h217.1c17.9 0 32.4 14.5 32.4 32.4v573.6c0.1 17-13.1 31-29.8 32.3v0zM517.2 284.9c-47.7 0-86.4 38.8-86.4 86.4 0 47.7 38.8 86.4 86.4 86.4s86.4-38.8 86.4-86.4c0-47.7-38.7-86.4-86.4-86.4v0zM630.4 516.7c0-6.4-5.2-11.6-11.6-11.6s-11.6 5.2-11.6 11.6v17.8c0 6.4 5.2 11.6 11.6 11.6s11.6-5.2 11.6-11.6v-17.8zM630.4 582c0-6.4-5.2-11.6-11.6-11.6s-11.6 5.2-11.6 11.6v64.3c0 6.4 5.2 11.6 11.6 11.6s11.6-5.2 11.6-11.6v-64.3zM416.3 754.3c-2 3-6.1 3.7-9 1.7l-39.7-27.2c-3-2-3.7-6.1-1.7-9 1.3-1.8 3.3-2.8 5.4-2.8 1.3 0 2.5 0.4 3.7 1.1l39.7 27.2c2.9 2.1 3.7 6.1 1.6 9v0zM367.6 834.3l39.7-27.2c1.1-0.8 2.4-1.1 3.7-1.1 2.1 0 4.1 1 5.4 2.8 2 3 1.3 7-1.7 9l-39.7 27.2c-2.9 2-7 1.3-9-1.7-2.1-3-1.3-7 1.6-9v0zM371.2 773h39.8c3.6 0 6.5 2.9 6.5 6.5s-2.9 6.5-6.5 6.5h-39.8c-3.6 0-6.5-2.9-6.5-6.5s2.9-6.5 6.5-6.5v0zM486.4 321.1c9-5.5 19.5-8.7 30.8-8.7 32.5 0 59 26.5 59 59 0 11.3-3.2 21.8-8.7 30.8l-81.1-81.1zM517.2 430.3c-32.5 0-59-26.5-59-59 0-11.3 3.2-21.8 8.7-30.8l81.1 81c-9 5.6-19.5 8.8-30.8 8.8v0z" />
<glyph unicode="&#xe62e;" glyph-name="category-icon-do-choi-hang-doc-la" data-tags="category-icon-do-choi-hang-doc-la" d="M892 508.7c-9.4 35.1-48.4 77-180.7 77-38.4 0-81.3-3.9-126.2-11.1-19.2-3-30.9-20.3-26.2-37.8s23.9-28.7 43.2-25.7c38.9 6 76.1 9.2 109.2 9.2 83 0 115.1-19.2 117.6-28.5 6.5-24.2-86.2-109.8-295.3-165.8-78.5-21.1-157-32.7-221.1-32.7-83 0-115.1 19.2-117.6 28.5-1.6 6.1 7.2 32.2 67 70.9 30.4 19.7 67.7 38.5 109.3 55.3 18 7.4 29.1 26.8 24.5 44.3-4.8 17.5-23.4 26.5-41.6 19.4-48.6-19.2-92.1-40.9-127.8-63.9-93.6-60.6-103.1-111.1-94.5-142.8 9.4-35.1 48.4-77 180.7-77 44.5 0 95.2 5.2 147.9 14.7 19.2 3.5 43.3-6.3 54.2-22.5l12.1-18.2c33.8-56.3 68.8-28.1 64.3 17.2l1.3 21.2c1.2 19.4 17.3 39.8 35.7 46.2 153.8 53.2 286.8 137.2 264 222.1v0zM450 399c2.2-8.2 7.4-15.2 14.4-19.5 7.1-4.3 15.4-5.6 23.2-3.4l50.6 13.7c7.8 2.1 14.4 7.3 18.3 14.6 3.9 7.2 4.9 15.9 2.7 24.1l-73.5 272.9c-2.3 8.2-7.4 15.2-14.5 19.5-7 4.3-15.4 5.6-23.1 3.5l-50.6-13.6c-16.2-4.3-25.6-21.7-20.9-38.7l73.4-273.1z" />
<glyph unicode="&#xe62f;" glyph-name="category-icon-do-choi-tre-em" data-tags="category-icon-do-choi-tre-em" d="M539.4 577.8c0-15.1-12.3-27.4-27.4-27.4s-27.4 12.3-27.4 27.4c0 15.1 12.3 27.4 27.4 27.4s27.4-12.2 27.4-27.4v0zM721.2 218.7c-13.2 7.1-11.2 19.8-11.2 27.8v111.8c38.6 7.9 123.4 8.6 123.4 84.8 0 37.7-30.7 51.5-68.2 47.7-29.9-3-43.9-23-94.6-3.9-6.4 2.4-24.3 18.2-14.1 30.7 26.2 32 41 73.6 41 118.5 0 7.3-0.1 22 6.5 24.8 33.7 14.1 56.5 49 56.5 88.5 0 53.5-42.6 96.8-95.1 96.8-28.5 0-54-12.7-71.4-32.9-1.5-1.8-4.3-5.4-10.9-2.6-23.5 11-43.3 14.3-71.1 14.3-29.8 0-51.5-4-76.5-16.7-7.9-2.4-13.2 5.7-17.1 9.6-17.2 17.4-40.9 28.2-67 28.2-52.5 0-95.1-43.3-95.1-96.8 0-41 25.1-76.1 60.5-90.2 3.4-1.4 8.7-5.5 9.6-23.1 2.1-44.5 15.1-85.4 40.4-117.7 9.4-12 0.3-27.4-13.8-31.8-51.5-15.9-64.5 1.2-94.3 4.3-37.5 3.9-68.2-10-68.2-47.7 0-74.2 84.9-76.8 123.4-84.6v-112c0-8.2 1.1-19.7-16-30.3-47.8-19.7-116.5-21.2-116.5-88.2 0-40.8 33.8-81.6 73.8-73.8 50.1 9.8 76.4 26.5 152.4 60.9 16.4 7.5 27.9 3.7 35.1 2.7 21.6-3 44.9-4.2 69.3-4.2 27.2 0 53.2 1.5 76.8 5.3 6 1 19.9 1.5 32.7-3.7 74.2-34.5 98-51.1 147.3-61.1 40-8 73.8 33 73.8 73.8 0 67.1-73.6 70.9-121.4 90.8v0zM601.8 550.4c0-39.9-41.2-72.2-92.1-72.2-50.8 0-92.1 32.3-92.1 72.2s41.2 72.2 92.1 72.2c50.9 0.1 92.1-32.2 92.1-72.2v0zM377.3 669.6c0 18.2 14.7 32.9 32.9 32.9s32.9-14.7 32.9-32.9c0-18.2-14.7-32.9-32.9-32.9s-32.9 14.8-32.9 32.9v0zM623.2 263c0-61.4-49.8-89-111.2-89s-111.2 27.6-111.2 89v52.3c0 61.4 49.8 111.2 111.2 111.2s111.2-49.8 111.2-111.2v-52.3zM597.8 636.7c-18.2 0-32.9 14.7-32.9 32.9s14.7 32.9 32.9 32.9 32.9-14.7 32.9-32.9c-0.1-18.1-14.8-32.9-32.9-32.9v0z" />
<glyph unicode="&#xe630;" glyph-name="category-icon-do-dung-dung-cu-du-lich" data-tags="category-icon-do-dung-dung-cu-du-lich" d="M529.1 376.2c0-9.5-7.7-17.1-17.1-17.1-9.5 0-17.1 7.6-17.1 17.1 0 9.4 7.6 17.1 17.1 17.1 9.3 0 17.1-7.6 17.1-17.1v0zM528.2 557.3c0-9-7.3-16.2-16.3-16.2s-16.2 7.3-16.2 16.2c0 8.8 7.2 16.2 16.2 16.2 9.1 0 16.3-7.3 16.3-16.2v0zM512 517.7c-78 0-141.3-63.5-141.3-141.5s63.4-141.4 141.3-141.4c78 0 141.5 63.4 141.5 141.4-0.1 78-63.5 141.5-141.5 141.5v0zM495 359.3l-59 93 93-59 59-93-93 59zM716.6 709.1h-40.3v49.8h-35.3v-49.8h-258v49.8h-35.2v-49.8h-40.3c-19.4 0-35.2-15.9-35.2-35.3v-554.3c0-19.4 15.7-35.2 35.2-35.2h34.5v-10.2c0-13.8 11.2-25 25-25s24.8 11.2 24.8 25v10.2h240.6v-10.2c0-13.8 11.1-25 24.8-25 13.8 0 24.8 11.2 24.8 25v10.2h34.5c19.5 0 35.2 15.7 35.2 35.2v554.3c0.1 19.4-15.7 35.3-35.1 35.3v0zM512 211.5c-90.8 0-164.8 73.8-164.8 164.7 0 79.2 56.2 145.4 130.8 161.1-3.4 5.9-5.5 12.5-5.5 19.8 0 21.9 17.9 39.6 39.6 39.6 21.8 0 39.6-17.7 39.6-39.6 0-7.3-2.2-13.9-5.5-19.8 74.5-15.7 130.7-82.1 130.7-161.1-0.1-90.9-74.1-164.7-164.9-164.7v0zM383 811.7h258v-20.6h35.3v55.7h-328.6v-55.7h35.3v20.6z" />
<glyph unicode="&#xe631;" glyph-name="category-icon-do-dung-gia-dinh" data-tags="category-icon-do-dung-gia-dinh" d="M818.2 792.2c-60.6 34.9-143.9 36.4-217.7 3.8-68.2-30.2-117.5-96.6-146.5-146.5-13.1 3.1-27.1-3.1-33.1-15.7-5.8-12.1-2.4-26.2 7.2-34.6-2.7-5.9-4.3-9.8-4.9-11.4l-141.1-310.1c-14.2 6.6-31.2 0.7-38.3-13.4-7.1-14.4-1.3-31.9 13.2-39.1l0.9-0.5-31.7-69.8h-78.9c-16.1 0-29.2-13-29.2-29.1s13.1-29.2 29.2-29.2h145.7c16.1 0 29.1 13.1 29.1 29.2s-13 29.1-29.1 29.1h-2.8l20.2 44.4c2.7-0.8 5.4-1.3 8-1.3 10.7 0 21.1 5.9 26.2 16.2 6.6 13.4 1.9 29.5-10.5 37.4l146.3 321.4c3.9-1.8 8.1-2.7 12.2-2.7 10.8 0 21.3 6 26.3 16.5 6.7 13.9 1.3 30.4-11.9 37.8 25 42.1 64.9 95.1 117.1 118.1 56.1 24.8 120.9 24.5 164.9-1 32.4-18.7 51-48.4 55.4-88.4 8.2-74.9 1.3-125.1-20.4-149.3-2-2.3-4.2-4.2-6.4-6v-65.2c17.9 6 35.2 15.9 49.8 32.3 33.6 37.5 45.1 101.1 35 194.5-6.3 57.8-36.3 104.9-84.2 132.6v0zM735.2 300.6c19.1 0 37-4.3 53.2-11.9v230.5c0 16.2 1.5 14.6-14.6 14.6h-57.1c-16.2 0-178.5-13.4-221.4-225.4l-27.5-175.3c0-16.1 13-36.4 29.2-36.4h138.3c-16.7 21.4-26.7 48.2-26.7 77.4 0 69.7 56.8 126.5 126.6 126.5v0zM803 243.9c-4.5 4.3-9.4 8.3-14.6 11.7-15.3 10-33.6 15.9-53.2 15.9-53.7 0-97.4-43.8-97.4-97.5 0-31.6 15.2-59.6 38.5-77.4 8.1-6.2 17.2-11.2 27-14.6 10-3.5 20.7-5.5 31.9-5.5s21.9 2 31.9 5.5c10.3 3.6 19.9 8.9 28.3 15.5 7.9 6.2 14.9 13.6 20.5 22 10.5 15.6 16.7 34.4 16.7 54.5 0 19.1-5.5 36.8-15.1 51.9-4.1 6.6-9 12.7-14.5 18v0zM735.2 222.9c27 0 48.9-21.9 48.9-48.9s-21.8-48.9-48.9-48.9c-27 0-48.9 21.9-48.9 48.9s21.9 48.9 48.9 48.9v0z" />
<glyph unicode="&#xe632;" glyph-name="category-icon-do-dung-trang-tri-khac" data-tags="category-icon-do-dung-trang-tri-khac" d="M420.5 635.7c1 7.4 3.3 33.8-7.7 55.4-14.9-8-28.9-17.6-41.9-28.8 17.3-6.5 33.9-15.7 49.6-27.4 0 0.3 0 0.5 0 0.8v0zM653.1 662.3c-15.5 13.3-32.3 24.7-50.4 33.3 3.3-20.9 4.3-40.9 3.6-58.6 14.9 10.7 30.6 19.1 46.8 25.3v0zM406 765.4c67.4-27.4 69.6-99.5 67.9-126.9 12.5 2.7 25.3 4.2 38.1 4.2 14 0 27.8-1.7 41.5-4.9 3 62.1-17.9 160.6-117.6 201.2-20.4 8.3-43.5-1.5-51.7-21.8-8.3-20.4 1.5-43.5 21.8-51.8v0zM717.8 621.4c-45.3 0-86.6-24.1-118.6-63.8-25.9 20.5-55.6 32.2-87.2 32.2s-61.2-11.7-87.2-32.1c-32 39.7-73.4 63.8-118.7 63.8-101.2 0-183.4-119.9-183.4-267.8s82.1-267.8 183.4-267.8c31.6 0 61.2 11.7 87.2 32.1 32-39.7 73.4-63.8 118.7-63.8s86.6 24.1 118.7 63.8c25.9-20.5 55.6-32.1 87.1-32.1 101.3 0 183.4 119.9 183.4 267.8s-82.1 267.7-183.4 267.7v0zM593.3 387.4l47.9 83.2c2.4 4.3 7 6.9 11.9 6.9s9.5-2.6 11.9-6.9l47.9-83.2c2.5-4.3 2.5-9.5 0-13.8s-7-6.9-11.9-6.9h-95.8c-4.9 0-9.5 2.6-11.9 6.9-2.5 4.3-2.5 9.5 0 13.8v0zM289 387.4l47.9 83.2c2.4 4.3 7 6.9 11.9 6.9s9.5-2.6 11.9-6.9l47.9-83.2c2.5-4.3 2.5-9.5 0-13.8s-7-6.9-11.9-6.9h-95.8c-4.9 0-9.5 2.6-11.9 6.9-2.5 4.3-2.5 9.5 0 13.8v0zM748.6 278.8c-7.5-26.6-17.8-53.1-30.6-78.5-5.7-11.4-18.8-17.1-31.1-13.5-19.2 5.6-37.9 12.6-55.8 20.7-10.9-16.1-23-31.6-36.3-46.3-5.2-5.8-12.4-8.8-19.7-8.8-4.9 0-9.9 1.4-14.2 4.1-16.7 10.6-32.5 22.3-47.2 34.8-14.7-12.5-30.5-24.2-47.2-34.8-10.9-6.9-25.3-5-33.9 4.7-13.2 14.7-25.4 30.3-36.3 46.3-17.9-8.2-36.6-15.1-55.8-20.7-12.3-3.5-25.4 2.1-31.1 13.5-12.8 25.4-23.1 51.9-30.6 78.5-4 14.1 4.2 28.7 18.3 32.6 13.9 4 28.7-4.2 32.6-18.3 4.6-16.3 10.4-32.6 17.3-48.6 16.1 5.8 31.6 12.6 46.3 20.5 12.5 6.7 27.9 2.3 35.2-9.8 8.4-14.2 18-27.9 28.5-41.2 13.6 9.9 26.4 20.6 38.2 31.9 10.2 9.9 26.5 9.9 36.7 0 11.8-11.3 24.6-22 38.2-31.9 10.5 13.2 20.1 27 28.5 41.2 7.2 12.1 22.7 16.5 35.2 9.8 14.7-7.8 30.2-14.7 46.3-20.5 6.9 16 12.7 32.2 17.3 48.6 4 14.1 18.8 22.3 32.6 18.3 14.3-3.9 22.5-18.5 18.6-32.6v0z" />
<glyph unicode="&#xe633;" glyph-name="category-icon-do-dung-van-phong" data-tags="category-icon-do-dung-van-phong" d="M896.6 443.1h-780.5v-43.9h34.5v-328.5h64v328.5h564.3v-328.5h64v328.5h53.8v43.9zM156.1 437.6l7.5 0.8h256.5v35.9h-39.3v19.2h-51.6v-19.2h-161.7c-6.7 78.4-17.1 264.9 32.1 311.8 27 25.7 60.5 34.7 92.3 24.7 26.7-8.5 47.7-29 55.8-53.6l-22.5-2.3 3.3-34.9-34.9-3.4-19.6-108.1 188.3 18.2-40 102.5-30.3-3-3.5 35-25.7-2.5c-8.8 30.5-34.1 56.2-66.6 66.4-37 11.7-76 1.6-107-28-53.9-51.5-43.8-241.5-36.8-322.6h-28.3v-35.8h31.9c0.1-0.5 0.1-1 0.1-1.1v0zM363.5 598.9c15.4 1.6 26.7 15.3 25.3 30.7-17.1-1.7-29.4-2.9-56-5.4 1.4-15.5 15.2-26.8 30.7-25.3v0zM454.1 443.1h428.5v19.2h-18.5l-2.7 48.7-5.5-2.3c-16.3-6.3-32.6-9.4-49.4-9.4-25.2 0-46.8 6.9-65.8 13-16.2 5.3-30.1 9.7-41.9 8.2-17.2-2-25.8-15.4-30.1-28.8-4.3 13.4-13 26.7-30.2 28.8-11.8 1.5-25.6-3-41.9-8.2-19-6.1-40.6-13-65.6-13-17 0-33.1 3.1-49.5 9.4l-5.5 2.3-2.7-48.7h-19.2v-19.2zM700 512.1c10.1 1.3 22.9-3 38.2-7.9 18.6-6 41.9-13.5 68.4-13.5 16.1 0 31.5 2.6 47 8.1l1.8-32.2h-182.3c0.5 11.5 4 42.7 26.9 45.5v0zM484 498.8c15.5-5.5 31-8.1 47-8.1 26.6 0 49.8 7.5 68.4 13.5 15.3 4.9 28 9.2 38.2 7.9 22.8-2.7 26.4-34 26.9-45.5h-182.3l1.8 32.2z" />
<glyph unicode="&#xe634;" glyph-name="category-icon-do-hoa-kien-truc-xay-dung" data-tags="category-icon-do-hoa-kien-truc-xay-dung" d="M512 841.7c-218.7 0-393.7-174.9-393.7-393.7 0-218.7 174.9-393.7 393.7-393.7 35.1 0 65.6 30.5 65.6 65.6 0 17.5-4.3 30.5-17.5 43.8-8.5 13-17.3 26-17.3 43.5 0 35.1 30.5 65.8 65.6 65.8h78.6c122.7 0 218.7 96.1 218.7 218.7 0 192.5-175 350-393.7 350v0zM271.5 448c-35.1 0-65.6 30.5-65.6 65.6s30.5 65.6 65.6 65.6c35 0 65.6-30.5 65.6-65.6s-30.6-65.6-65.6-65.6v0zM402.6 622.9c-35 0-65.6 30.6-65.6 65.6 0 35.1 30.6 65.6 65.6 65.6 35.1 0 65.6-30.5 65.6-65.6 0-35-30.5-65.6-65.6-65.6v0zM621.4 622.9c-35 0-65.6 30.6-65.6 65.6 0 35.1 30.6 65.6 65.6 65.6 35.1 0 65.6-30.5 65.6-65.6-0.1-35-30.6-65.6-65.6-65.6v0zM752.8 448c-35.1 0-65.8 30.5-65.8 65.6s30.8 65.6 65.8 65.6c34.8 0 65.6-30.5 65.6-65.6s-30.8-65.6-65.6-65.6v0z" />
<glyph unicode="&#xe635;" glyph-name="category-icon-dong-ho-mat-kinh" data-tags="category-icon-dong-ho-mat-kinh" d="M582.6 298.7l-67.7-61.4c-1.2-1.1-1.8-0.6-2.1-0.5-2.2 0.9-4.6 1.4-7.1 1.4-4.3 0-8.2-1.4-11.4-3.8-0.5-0.3-1.5-1.2-2.7-0.5l-47.7 19.2c-6.3 2.7-13.7-0.2-16.4-6.5s0.2-13.7 6.5-16.4l55.9-22.5c1-0.3 1.5-1.1 1.9-1.5 3.5-3.7 8.4-6.1 13.9-6.1 10.5 0 19 8.5 19 19 0 0.6 0.1 2.1 1 2.9l69.3 62.9c3.8 3.4 4.1 9.3 0.6 13.1-3.3 3.8-9.2 4.1-13 0.7v0zM474.6 401.4c0-5.7-1-6.5-2.2-6.8-69.3-17.4-120.8-80.2-120.8-154.8 0-88 71.6-159.6 159.6-159.6s159.6 71.6 159.6 159.6c0 79-54.7 144.2-130.1 156.9-2.8-0.1-2.4 5.6-2.4 7 0 10.9-14.1 17.4-31.8 17.4-17.5-0.1-31.9-8.9-31.9-19.7v0zM640.4 239.8c0-71.2-57.9-129-129.1-129s-129 57.9-129 129c0 71.2 57.9 129.1 129 129.1 71.2-0.1 129.1-58 129.1-129.1v0zM334.4 239.7c0 24.7 5.1 48.2 14.4 69.6 0.5 1.2 0.4 3.6-2.5 3.6h-163.7c0 0-5 0-5-8v-130.1c0-8.2 5-8.2 5-8.2h163.2c4.6 0 3.3 2.8 2.7 4.3-9.1 21-14.1 44.3-14.1 68.8v0zM689.3 239.7c0-24.7-5.1-48.3-14.4-69.6-0.5-1.2-0.3-3.6 2.5-3.6h163.6c0 0 5 0 5 8.1v130.1c0 8.2-5 8.2-5 8.2h-163.1c-4.6 0-3.3-2.8-2.7-4.3 9.1-21.2 14.1-44.5 14.1-68.9v0zM904.2 761.4c-85.5 13.4-248.6 16.1-366.2-16.1h-50.7c-117.5 32.1-280.6 29.4-366.2 16.1-10.6-2.7-10.6-48.1-2.7-50.7 16.1-8 24-24 24-24s5.3-16.1 18.7-74.8c13.3-59 48.1-69.7 48.1-69.7s42.8-10.6 90.8-10.6c48.1 0 77.6 2.7 109.6 18.7 32 16.1 45.4 58.8 45.4 58.8s16.1 37.5 26.7 72.1c2.7 10.8 56.2 10.8 58.8 0 10.6-34.8 26.7-72.1 26.7-72.1s13.4-42.8 45.4-58.8c32.1-16.1 61.5-18.7 109.6-18.7s90.8 10.6 90.8 10.6 34.8 8 48.1 69.5c13.4 61.5 18.7 74.8 18.7 74.8s8 16.1 24 24c11.1 2.7 11.1 50.9 0.4 50.9v0z" />
</font>
</defs>
</svg>
